<svg xmlns="http://www.w3.org/2000/svg" width="69" height="69" viewBox="0 0 69 69">
  <g id="Icon_-_About_Us_-_What_we_re_about_-_Accountable" data-name="Icon - About Us - What we&apos;re about - Accountable" transform="translate(-198 -3565.886)">
    <circle id="Ellipse_27" data-name="Ellipse 27" cx="34.5" cy="34.5" r="34.5" transform="translate(198 3565.886)" fill="#fff"/>
    <g id="noun_Accountable_948102-G" transform="translate(197.119 3564.8)">
      <g id="Group_173" data-name="Group 173" transform="translate(10.9 10.9)">
        <path id="Path_90" data-name="Path 90" d="M58.589,34.246H55.6a20.8,20.8,0,0,0-1.183-5.914l2.739-1.121a.948.948,0,0,0-.747-1.743L53.67,26.526a19.814,19.814,0,0,0-3.362-5.043l2.117-2.117A.968.968,0,0,0,51.056,18l-2.117,2.179A19.813,19.813,0,0,0,43.9,16.814l1.121-2.739a.948.948,0,1,0-1.743-.747l-1.121,2.739a20.8,20.8,0,0,0-5.914-1.183V11.9a1,1,0,1,0-1.992,0v2.988a20.8,20.8,0,0,0-5.914,1.183l-1.121-2.739a.948.948,0,0,0-1.743.747l1.121,2.739a19.813,19.813,0,0,0-5.043,3.362L19.429,18.06a.968.968,0,0,0-1.37,1.37l2.117,2.117a19.813,19.813,0,0,0-3.362,5.043l-2.739-1.183a.948.948,0,0,0-.747,1.743l2.739,1.121a20.8,20.8,0,0,0-1.183,5.914H11.9a1,1,0,1,0,0,1.992h2.988a20.8,20.8,0,0,0,1.183,5.914l-2.739,1.121a.892.892,0,0,0-.5,1.245.936.936,0,0,0,.872.623.79.79,0,0,0,.374-.062L16.814,43.9a19.814,19.814,0,0,0,3.362,5.043L18.06,51.056a.977.977,0,0,0,0,1.37.909.909,0,0,0,1.37,0l2.117-2.117a19.814,19.814,0,0,0,5.043,3.362L25.406,56.41a.938.938,0,0,0,.5,1.245.79.79,0,0,0,.374.062.936.936,0,0,0,.872-.623l1.121-2.739a20.8,20.8,0,0,0,5.914,1.183v2.988a1,1,0,1,0,1.992,0V55.538a20.8,20.8,0,0,0,5.914-1.183l1.121,2.739a.936.936,0,0,0,.872.623.79.79,0,0,0,.374-.062.892.892,0,0,0,.5-1.245l-1-2.739A19.814,19.814,0,0,0,49,50.309l2.117,2.117a.909.909,0,0,0,1.37,0,.977.977,0,0,0,0-1.37l-2.179-2.117A19.814,19.814,0,0,0,53.67,43.9l2.739,1.121a.79.79,0,0,0,.374.062.98.98,0,0,0,.374-1.868l-2.739-1.121A20.8,20.8,0,0,0,55.6,36.176h2.988a.983.983,0,0,0,1-1A.972.972,0,0,0,58.589,34.246ZM35.242,53.733a18.49,18.49,0,1,1,18.49-18.49A18.493,18.493,0,0,1,35.242,53.733Z" transform="translate(-10.9 -10.9)" fill="#1a7175"/>
        <path id="Path_91" data-name="Path 91" d="M47.056,39.412A4.856,4.856,0,1,0,42.2,34.556,4.862,4.862,0,0,0,47.056,39.412Zm0-7.782a2.926,2.926,0,1,1-2.926,2.926A2.923,2.923,0,0,1,47.056,31.63Z" transform="translate(-22.714 -17.996)" fill="#1a7175"/>
        <path id="Path_92" data-name="Path 92" d="M48.576,48.4h-7.72A4.862,4.862,0,0,0,36,53.256v5.852a1,1,0,1,0,1.992,0V53.256a2.923,2.923,0,0,1,2.926-2.926H48.7a2.923,2.923,0,0,1,2.926,2.926v5.852a1,1,0,1,0,1.992,0V53.256A5.067,5.067,0,0,0,48.576,48.4Z" transform="translate(-20.374 -25.054)" fill="#1a7175"/>
      </g>
    </g>
  </g>
</svg>
