<svg xmlns="http://www.w3.org/2000/svg" width="69" height="69" viewBox="0 0 69 69">
  <g id="Icon_-_About_Us_-_What_we_re_about_-_Natural_mentors" data-name="Icon - About Us - What we&apos;re about - Natural mentors" transform="translate(-671 -3565.886)">
    <circle id="Ellipse_25" data-name="Ellipse 25" cx="34.5" cy="34.5" r="34.5" transform="translate(671 3565.886)" fill="#fff"/>
    <path id="Path_93" data-name="Path 93" d="M15.542,8.28a5.947,5.947,0,1,0,5.947,5.947A5.961,5.961,0,0,0,15.542,8.28Zm0,2.182a3.764,3.764,0,1,1-3.764,3.764A3.772,3.772,0,0,1,15.542,10.462Zm25.205,3a5.947,5.947,0,1,0,5.947,5.947A5.961,5.961,0,0,0,40.748,13.463Zm0,2.182a3.764,3.764,0,1,1-3.764,3.764A3.772,3.772,0,0,1,40.748,15.645ZM15.542,22.9A11.328,11.328,0,0,0,4.14,34.14v9.329A1.094,1.094,0,0,0,5.231,44.56H39.547a1.091,1.091,0,0,0,0-2.182H6.322V34.14a9.105,9.105,0,0,1,9.22-9.056,9.105,9.105,0,0,1,9.22,9.056v5.4a1.091,1.091,0,0,0,2.182,0V34.085A11.317,11.317,0,0,0,15.542,22.9Zm25.205,5.183a11.328,11.328,0,0,0-11.4,11.239,1.091,1.091,0,1,0,2.182,0v-.055a9.221,9.221,0,0,1,18.44.055v8.238H30.436a1.091,1.091,0,0,0,0,2.182H51.059a1.094,1.094,0,0,0,1.091-1.091V39.323A11.328,11.328,0,0,0,40.748,28.084Z" transform="translate(676.903 3571.566)" fill="#1a7175"/>
  </g>
</svg>
