<svg xmlns="http://www.w3.org/2000/svg" width="69" height="69" viewBox="0 0 69 69">
  <g id="Icon_-_About_Us_-_What_we_re_about_-_Solution" data-name="Icon - About Us - What we&apos;re about - Solution" transform="translate(-435 -3566.886)">
    <g id="Group_174" data-name="Group 174">
      <circle id="Ellipse_26" data-name="Ellipse 26" cx="34.5" cy="34.5" r="34.5" transform="translate(435 3566.886)" fill="#fff"/>
      <g id="noun_solution_2315332-G" transform="translate(436.247 3574.1)">
        <path id="Path_94" data-name="Path 94" d="M44.674,20.012A2.077,2.077,0,0,0,41.85,19.4a2.028,2.028,0,0,0-.822,2.413.392.392,0,0,0,.1.257l1.027,5.083c-1.078.257-2.721.616-2.773.616a2.225,2.225,0,0,0-1.335,1.027A2.061,2.061,0,0,0,38.1,30.9l5.442,8.626a2.323,2.323,0,0,0,1.284.924,1.422,1.422,0,0,0,.462.051,2.059,2.059,0,0,0,2-2.516c-.051-.205-.462-3.132-.873-5.494,1.181-.308,2.567-.667,2.67-.719a2.089,2.089,0,0,0,1.13-.976h0a2.124,2.124,0,0,0,.257-.976,1.9,1.9,0,0,0-.308-1.078Zm3.7,9.755c-.411.1-3.44.873-3.44.873l-.873.205.154.924c.976,6.418,1.027,6.521.976,6.572l-5.442-8.677c.154-.051,3.748-.822,3.748-.822l.976-.205L43.031,21.45v-.205l-.1-.154,5.442,8.626v.051Z" transform="translate(-10.779 -8.016)" fill="#1a7175"/>
        <path id="Path_95" data-name="Path 95" d="M50.633,16.514h0a8.705,8.705,0,0,0-.462-1.848A17.6,17.6,0,0,0,33.587,2.6H32.92A17.783,17.783,0,0,0,16.335,14.666a15.985,15.985,0,0,0-.462,1.848,15.336,15.336,0,0,0,.976,8.728.867.867,0,0,1,.1.257c.924,2.054,2.31,4.467,3.645,6.777a70.337,70.337,0,0,1,3.748,7.137,2.367,2.367,0,0,0,2.208,1.438H39.9a2.42,2.42,0,0,0,2.208-1.438,70.336,70.336,0,0,1,3.748-7.137c1.335-2.31,2.721-4.724,3.645-6.777a.868.868,0,0,0,.1-.257A14.928,14.928,0,0,0,50.633,16.514Zm-2.875,7.958a.389.389,0,0,1-.1.205c-.924,2-2.259,4.313-3.543,6.623a81.51,81.51,0,0,0-3.9,7.342.347.347,0,0,1-.308.205H26.6a.347.347,0,0,1-.308-.205,65.439,65.439,0,0,0-3.9-7.342c-1.284-2.259-2.67-4.621-3.594-6.623-.051-.051-.051-.154-.1-.205a13.023,13.023,0,0,1-.822-7.548,11.685,11.685,0,0,1,.359-1.54A15.706,15.706,0,0,1,32.92,4.654h.667a15.677,15.677,0,0,1,14.684,10.68,11.685,11.685,0,0,1,.359,1.54A13.259,13.259,0,0,1,47.758,24.472Z" fill="#1a7175"/>
        <path id="Path_96" data-name="Path 96" d="M49.587,81.183A1,1,0,0,0,48.406,82l-.565,2.927h-1.13a.994.994,0,0,0-.873.513,4.028,4.028,0,0,1-3.543,2,4.137,4.137,0,0,1-3.543-2,1.059,1.059,0,0,0-.873-.513h-1.13L36.186,82a1.017,1.017,0,1,0-2,.359L34.8,85.65a1.584,1.584,0,0,0,1.54,1.284h.924a6.13,6.13,0,0,0,4.98,2.516,6.273,6.273,0,0,0,4.98-2.516h.924a1.551,1.551,0,0,0,1.54-1.284l.616-3.286A.878.878,0,0,0,49.587,81.183Z" transform="translate(-9.017 -38.227)" fill="#1a7175"/>
      </g>
    </g>
  </g>
</svg>
