<svg xmlns="http://www.w3.org/2000/svg" xmlns:xlink="http://www.w3.org/1999/xlink" width="200" height="60" viewBox="0 0 200 60">
  <defs>
    <clipPath id="clip-Brandwatch_200x60">
      <rect width="200" height="60"/>
    </clipPath>
  </defs>
  <g id="Brandwatch_200x60" clip-path="url(#clip-Brandwatch_200x60)">
    <g id="Layer_2" data-name="Layer 2" transform="translate(0 7.544)">
      <g id="Layer_1" data-name="Layer 1" transform="translate(0 0.004)">
        <g id="Group_17" data-name="Group 17">
          <path id="Path_88" data-name="Path 88" d="M0,13.66v11.8l13.825,6.519L27.948,17.1,18.7.29a4.786,4.786,0,0,0-.875.376L2.485,9.486A4.83,4.83,0,0,0,0,13.66" transform="translate(0 -0.04)" fill="#bdbdbd"/>
          <path id="Path_89" data-name="Path 89" d="M15.8,34.375,32.425,42.25l7.534-4.375L29.9,19.5Z" transform="translate(-1.975 -2.441)" fill="#bdbdbd"/>
          <path id="Path_90" data-name="Path 90" d="M38.874,8.374,25.346.631A4.909,4.909,0,0,0,21.4.254L30.675,17.1l8.278-8.68Z" transform="translate(-2.675 -0.004)" fill="#bdbdbd"/>
          <path id="Path_91" data-name="Path 91" d="M42,36.636h.044a4.83,4.83,0,0,0,2.406-4.174V14.823a4.821,4.821,0,0,0-2.406-4.191L40.218,9.59,31.94,18.279,42.02,36.654Z" transform="translate(-3.992 -1.202)" fill="#bdbdbd"/>
          <path id="Path_92" data-name="Path 92" d="M0,29.05V34.9a4.856,4.856,0,0,0,2.459,4.174l5.189,3,6.178-6.5Z" transform="translate(0 -3.635)" fill="#bdbdbd"/>
          <path id="Path_93" data-name="Path 93" d="M8.76,43l10.15,5.819a4.891,4.891,0,0,0,4.874,0l7.788-4.471L14.946,36.47Z" transform="translate(-1.095 -4.562)" fill="#bdbdbd"/>
          <path id="Path_94" data-name="Path 94" d="M164.808,29.033c0,2.345-1.916,3.159-3.5,3.159-2.905,0-3.22-1.47-3.22-2.1a2.03,2.03,0,0,1,.831-1.75,6,6,0,0,1,3.115-.49h2.791v1.173Zm-6.178-5.8a1.7,1.7,0,0,1,.7-1.19,4.471,4.471,0,0,1,4.751,0,2.371,2.371,0,0,1,.726,1.873v.945h-2.861a8.039,8.039,0,0,0-4.874,1.1,4.821,4.821,0,0,0-1.986,4.06c0,3.133,2.432,5.145,6.178,5.145a6.125,6.125,0,0,0,4.06-1.47l.07,1.2h2.345V23.931a5.119,5.119,0,0,0-1.75-4.148,6.545,6.545,0,0,0-4.288-1.4,6.449,6.449,0,0,0-4.288,1.4,4.463,4.463,0,0,0-1.662,3.2l2.888.228Zm-61.67,5.8c0,2.319-1.89,3.194-3.5,3.194-2.931,0-3.229-1.47-3.229-2.1a2.013,2.013,0,0,1,.814-1.75,6.064,6.064,0,0,1,3.1-.525H96.96Zm-6.178-5.8a1.7,1.7,0,0,1,.7-1.19,3.649,3.649,0,0,1,2.363-.683,3.6,3.6,0,0,1,2.4.683,2.345,2.345,0,0,1,.717,1.873v.945H94.116a8.037,8.037,0,0,0-4.891,1.1,4.83,4.83,0,0,0-1.96,4.06c0,3.133,2.406,5.145,6.178,5.145A6.125,6.125,0,0,0,97.5,33.7l.07,1.2h2.345V23.931a5.119,5.119,0,0,0-1.75-4.148,6.571,6.571,0,0,0-4.314-1.4,6.493,6.493,0,0,0-4.279,1.4,4.375,4.375,0,0,0-1.654,3.2l2.87.228Zm37.625,3.5a7.2,7.2,0,0,1-.971,4.2,3.176,3.176,0,0,1-2.8,1.3,3.238,3.238,0,0,1-2.8-1.286,7.324,7.324,0,0,1-1.032-4.2,6.816,6.816,0,0,1,1.032-4.06,3.238,3.238,0,0,1,2.8-1.286,3.159,3.159,0,0,1,2.774,1.286,6.641,6.641,0,0,1,.971,4.025Zm-.455-13.9v6.79a4.681,4.681,0,0,0-3.264-1.243h-.052a6.125,6.125,0,0,0-5.005,2.371,9.17,9.17,0,0,0-1.75,5.95,9.433,9.433,0,0,0,1.75,6.125,6.125,6.125,0,0,0,5.005,2.371h.052a5.521,5.521,0,0,0,3.771-1.68l.088,1.374h2.345V12.81h-2.958ZM190.026,29.33a2.625,2.625,0,0,1-.875,2.048,3.631,3.631,0,0,1-2.459.875,3.211,3.211,0,0,1-2.791-1.286,7,7,0,0,1-1.068-4.13,6.93,6.93,0,0,1,1.068-4.13,3.211,3.211,0,0,1,2.791-1.286,3.754,3.754,0,0,1,2.485.875,2.7,2.7,0,0,1,.875,2.03l2.861-.158a5.39,5.39,0,0,0-1.846-4.156,6.624,6.624,0,0,0-4.375-1.531,6.125,6.125,0,0,0-5.049,2.371,9.432,9.432,0,0,0-1.75,6.02,9.459,9.459,0,0,0,1.75,6.02,6.073,6.073,0,0,0,5.049,2.371,6.624,6.624,0,0,0,4.375-1.531,5.434,5.434,0,0,0,1.846-4.174ZM177.557,32.1a1.575,1.575,0,0,1-1.9,0,2.083,2.083,0,0,1-.788-1.75V21.691h2.861V18.716h-2.9V15.6h-2.975v3.071h-1.75v2.975h1.75V30.31a4.743,4.743,0,0,0,2.485,4.541,4.576,4.576,0,0,0,4.856-.516l.088-.087-1.645-2.24Zm-29.348-2.258-3.159-11.139h-2.774l-3.159,11.139-3.2-11.139H133.08l4.646,16.214h2.748l3.176-11.165,3.185,11.1h2.748l4.646-16.24h-2.835ZM72,19.74a2.625,2.625,0,0,1-.875,2.161,5.39,5.39,0,0,1-3.159.744H64.585V16.783h3.273c4.13.07,4.13,2.1,4.13,2.931m-.114,11.305a4.428,4.428,0,0,1-3,.875H64.585V25.6h4.576a4.288,4.288,0,0,1,2.774.928A2.555,2.555,0,0,1,72.81,28.6a2.975,2.975,0,0,1-.945,2.415m1.47-7.105a5.688,5.688,0,0,0,1.645-4.13,5.408,5.408,0,0,0-1.986-4.463,8.339,8.339,0,0,0-5.25-1.5H61.68V34.9h7.158a7.306,7.306,0,0,0,5.049-1.671A5.915,5.915,0,0,0,75.8,28.578a5.591,5.591,0,0,0-1.461-3.763,7.56,7.56,0,0,0-1.015-.875m35.77-5.53c-3.833,0-6.125,2.485-6.125,6.633V34.9h2.975V24.99c0-1.076.315-3.605,3.2-3.605s3.185,2.529,3.185,3.605v9.931h2.949V25.016c0-4.148-2.3-6.633-6.125-6.633m92.751,0a5.5,5.5,0,0,0-3.6,1.216V12.836h-2.931V34.9H198.3V25.06a3.439,3.439,0,0,1,3.386-3.7c2.091,0,3.045,1.873,3.045,3.614V34.9h2.975V25.226c0-6.519-4.83-6.86-5.8-6.86m-117.329,0c-3.833,0-6.125,2.485-6.125,6.633v9.9h2.958V24.99c0-1.076.315-3.605,3.2-3.605a3.692,3.692,0,0,1,1.085.131l.761-2.905a7.726,7.726,0,0,0-1.846-.228" transform="translate(-7.71 -1.605)" fill="#bdbdbd"/>
        </g>
      </g>
    </g>
  </g>
</svg>
