<svg xmlns="http://www.w3.org/2000/svg" xmlns:xlink="http://www.w3.org/1999/xlink" width="200" height="60" viewBox="0 0 200 60">
  <defs>
    <clipPath id="clip-BrightLocal_200x60_2">
      <rect width="200" height="60"/>
    </clipPath>
  </defs>
  <g id="BrightLocal_200x60_2" data-name="BrightLocal_200x60 – 2" clip-path="url(#clip-BrightLocal_200x60_2)">
    <g id="brightlocal_logo" transform="translate(0 12.873)">
      <path id="Path_127" data-name="Path 127" d="M0,0H200V34.253H0Z" fill="none" fill-rule="evenodd"/>
      <path id="Path_128" data-name="Path 128" d="M16.487,28.744c-.39.046-.748-.393-1.109-.723-3.63-3.3-7.262-6.59-10.827-9.986-1.639-1.561-3.356-3.07-4.115-5.357a9.2,9.2,0,0,1,2.9-9.857,9.12,9.12,0,0,1,5.708-2,9.246,9.246,0,0,1,7.4,3.907c.453.65-.572,1.543-.825,2.169-.022.053-.152-.292-.172-.239-.027-.054-.06-.138-.088-.192A7.314,7.314,0,0,0,9.078,2.649H8.991A7.314,7.314,0,0,0,2.616,6.542,6.982,6.982,0,0,0,3.2,14a31.767,31.767,0,0,0,3.434,3.489c2.851,2.684,5.748,5.326,8.644,7.967l.513.512a13.767,13.767,0,0,0,.449,2.744.575.575,0,0,0,.245.036Z" transform="translate(0 0.086)" fill="#bdbdbd"/>
      <path id="Path_129" data-name="Path 129" d="M22.484.822a9.173,9.173,0,0,1,7.677,4.326,9.013,9.013,0,0,1,.04,9.286,20.434,20.434,0,0,1-3.3,3.612c-3.748,3.564-7.578,7.023-11.4,10.484l-.115.1a.606.606,0,0,1-.643.038c-.368-.213-.313-.811-.346-1.322-.341-5.293-.738-10.589-.89-15.884A11.353,11.353,0,0,1,14.489,5.6,9.154,9.154,0,0,1,22.4.822h.083ZM22.473,6.5a3.32,3.32,0,0,1,3.318,3.317,3.32,3.32,0,0,1-6.636,0A3.32,3.32,0,0,1,22.474,6.5Z" transform="translate(1.418 0.086)" fill="#bdbdbd" fill-rule="evenodd"/>
      <path id="Path_130" data-name="Path 130" d="M8.557,5.2a4.155,4.155,0,0,1,3.73,5.932,4.246,4.246,0,0,1-4.542,2.3A4.26,4.26,0,0,1,4.412,9.913,4.156,4.156,0,0,1,8.557,5.2ZM8.515,7.036A2.39,2.39,0,0,0,6.261,8.859a2.385,2.385,0,0,0,2.682,2.785,2.383,2.383,0,0,0,1.883-1.931A2.387,2.387,0,0,0,8.56,7.036H8.515Z" transform="translate(0.46 0.547)" fill="#bdbdbd"/>
      <g id="Group_23" data-name="Group 23" transform="translate(38.831 3.557)">
        <path id="Path_131" data-name="Path 131" d="M39.137,22.981h4.03a3.5,3.5,0,0,0,2.512-.9,3.033,3.033,0,0,0,.943-2.3,2.97,2.97,0,0,0-.943-2.3,3.582,3.582,0,0,0-2.512-.863h-4.03Zm0-9.529h3.551a3.351,3.351,0,0,0,2.352-.831,2.806,2.806,0,0,0,.912-2.175,2.806,2.806,0,0,0-.912-2.175,3.358,3.358,0,0,0-2.352-.831H39.137Zm-4-9.24h8.349a7.758,7.758,0,0,1,2.639.431,6.1,6.1,0,0,1,2.063,1.216,5.526,5.526,0,0,1,1.343,1.854,5.673,5.673,0,0,1,.48,2.35,5.328,5.328,0,0,1-.848,2.989,4.992,4.992,0,0,1-2.287,1.9,5.5,5.5,0,0,1,2.863,1.982,5.287,5.287,0,0,1,1.04,3.23,5.9,5.9,0,0,1-.5,2.445,5.577,5.577,0,0,1-1.391,1.9,6.447,6.447,0,0,1-2.143,1.248,7.994,7.994,0,0,1-2.718.448H35.14Zm19.383,6.011h4.094v1.6a5.255,5.255,0,0,1,3.934-1.982,6.513,6.513,0,0,1,.672.033,4.057,4.057,0,0,1,.672.127v3.646a5.219,5.219,0,0,0-1.439-.192,4.343,4.343,0,0,0-2.031.528,5.606,5.606,0,0,0-1.808,1.55v10.68H54.522Zm12.443,0H71.06V26.211H66.965Zm-.287-4.414a2.335,2.335,0,1,1,4.669,0,2.221,2.221,0,0,1-.655,1.662,2.525,2.525,0,0,1-3.359,0,2.221,2.221,0,0,1-.655-1.663ZM89.866,26.018a7.545,7.545,0,0,1-.608,3.054,7.109,7.109,0,0,1-1.7,2.4,7.686,7.686,0,0,1-2.623,1.567,9.752,9.752,0,0,1-3.358.559,14.416,14.416,0,0,1-5.629-1.216V28.8a14.625,14.625,0,0,0,2.686,1.15,8.651,8.651,0,0,0,2.559.415,5.417,5.417,0,0,0,1.839-.3,4.053,4.053,0,0,0,1.44-.864,3.981,3.981,0,0,0,.928-1.343,4.31,4.31,0,0,0,.335-1.711V25.091a6.4,6.4,0,0,1-4.062,1.5,6.8,6.8,0,0,1-2.926-.623,6.868,6.868,0,0,1-2.287-1.727,7.867,7.867,0,0,1-1.487-2.638,10.384,10.384,0,0,1-.527-3.389,10.381,10.381,0,0,1,.527-3.39,7.878,7.878,0,0,1,1.487-2.638,6.869,6.869,0,0,1,2.287-1.726,6.779,6.779,0,0,1,2.926-.624,6.574,6.574,0,0,1,4.062,1.471V10.223h4.126V26.017Zm-11.227-7.8a5.42,5.42,0,0,0,1.088,3.517,3.486,3.486,0,0,0,2.847,1.343,4.333,4.333,0,0,0,3.166-1.439V14.794a4.331,4.331,0,0,0-3.166-1.439A3.484,3.484,0,0,0,79.727,14.7,5.414,5.414,0,0,0,78.639,18.217Zm15.672-15H98.4V11.6a7.378,7.378,0,0,1,4.67-1.759,6.132,6.132,0,0,1,2.287.415,5.251,5.251,0,0,1,2.989,3.007,6.306,6.306,0,0,1,.417,2.334V26.211h-4.126V16.329a2.9,2.9,0,0,0-.783-2.094,2.69,2.69,0,0,0-2.031-.816,4.686,4.686,0,0,0-3.422,1.7V26.209H94.311V3.22Zm23.957,7h4.6v3.293h-4.606V20.9a2.206,2.206,0,0,0,.641,1.631,2.286,2.286,0,0,0,1.694.64,5.2,5.2,0,0,0,2.271-.64v3.389a9.242,9.242,0,0,1-3.358.672,5.851,5.851,0,0,1-2.159-.383,4.888,4.888,0,0,1-2.782-2.7,5.231,5.231,0,0,1-.4-2.063v-7.93h-2.75V10.223h2.752V5.714h4.093v4.509Z" transform="translate(-35.14 -3.219)" fill="#bdbdbd"/>
        <path id="Path_132" data-name="Path 132" d="M118.267,4.211h4.158V22.789h8.827v3.421H118.267Zm14.17,14a9.129,9.129,0,0,1,.608-3.389,7.674,7.674,0,0,1,1.711-2.638,7.953,7.953,0,0,1,2.607-1.726,9.172,9.172,0,0,1,6.652,0,7.638,7.638,0,0,1,4.286,4.364,9.148,9.148,0,0,1,.608,3.39,9.172,9.172,0,0,1-.608,3.373,7.609,7.609,0,0,1-4.286,4.382,9.187,9.187,0,0,1-6.652,0,7.952,7.952,0,0,1-2.608-1.727,7.643,7.643,0,0,1-1.711-2.654,9.176,9.176,0,0,1-.608-3.373Zm4.189,0a6.4,6.4,0,0,0,.3,2.031,4.754,4.754,0,0,0,.832,1.55,3.809,3.809,0,0,0,1.279,1.008,3.7,3.7,0,0,0,1.648.368,3.6,3.6,0,0,0,1.631-.368,3.858,3.858,0,0,0,1.263-1.008,4.754,4.754,0,0,0,.832-1.55,6.88,6.88,0,0,0,0-4.044,4.74,4.74,0,0,0-.832-1.567,3.852,3.852,0,0,0-1.263-1.008,3.6,3.6,0,0,0-1.631-.368,3.692,3.692,0,0,0-1.647.368,3.8,3.8,0,0,0-1.28,1.008,4.74,4.74,0,0,0-.832,1.567,6.435,6.435,0,0,0-.3,2.014Zm14.586,0a9.129,9.129,0,0,1,.608-3.389,7.64,7.64,0,0,1,4.285-4.364,8.584,8.584,0,0,1,3.326-.624,11.469,11.469,0,0,1,4.829,1.119v3.678a7.507,7.507,0,0,0-4.093-1.376,4.851,4.851,0,0,0-1.919.368,4.716,4.716,0,0,0-1.5,1.008,4.376,4.376,0,0,0-.991,1.567,5.631,5.631,0,0,0-.353,2.014,5.484,5.484,0,0,0,.353,2,4.557,4.557,0,0,0,.991,1.567,4.61,4.61,0,0,0,1.5,1.023,4.851,4.851,0,0,0,1.919.368,7.514,7.514,0,0,0,4.094-1.376v3.678a11.477,11.477,0,0,1-4.829,1.119,8.6,8.6,0,0,1-3.326-.623,7.609,7.609,0,0,1-4.286-4.382,9.153,9.153,0,0,1-.608-3.373Zm24.724,6.715a7.376,7.376,0,0,1-4.606,1.663,5.731,5.731,0,0,1-2.048-.351,4.847,4.847,0,0,1-1.6-.976,4.454,4.454,0,0,1-1.055-1.5,5,5,0,0,1,.176-4.221,5.225,5.225,0,0,1,1.584-1.774,8.007,8.007,0,0,1,2.431-1.151,11.033,11.033,0,0,1,3.134-.415c.32,0,.64,0,.959.015s.662.027,1.024.048V15.53a2.278,2.278,0,0,0-.832-1.823,3.256,3.256,0,0,0-2.175-.7,9.446,9.446,0,0,0-2.591.383,12.862,12.862,0,0,0-2.718,1.151V11.15a14.683,14.683,0,0,1,2.911-.991,13.233,13.233,0,0,1,2.879-.32,7.713,7.713,0,0,1,2.654.431,5.79,5.79,0,0,1,2.016,1.216,5.5,5.5,0,0,1,1.3,1.871,5.967,5.967,0,0,1,.464,2.367V26.209h-3.9V24.931Zm-5.662-3.676a2.017,2.017,0,0,0,.672,1.566,2.473,2.473,0,0,0,1.727.608,3.79,3.79,0,0,0,1.68-.415,5.927,5.927,0,0,0,1.583-1.151V18.728a16.223,16.223,0,0,0-1.791-.1,4.857,4.857,0,0,0-2.8.735,2.212,2.212,0,0,0-1.072,1.887ZM183.387,3.219h4.094V26.211h-4.094Z" transform="translate(-26.408 -3.219)" fill="#bdbdbd"/>
      </g>
    </g>
  </g>
</svg>
