<svg xmlns="http://www.w3.org/2000/svg" xmlns:xlink="http://www.w3.org/1999/xlink" width="200" height="60" viewBox="0 0 200 60">
  <defs>
    <clipPath id="clip-Brightedge_200x60_1">
      <rect width="200" height="60"/>
    </clipPath>
  </defs>
  <g id="Brightedge_200x60_1" data-name="Brightedge_200x60 – 1" clip-path="url(#clip-Brightedge_200x60_1)">
    <g id="brightedge-logo_white" transform="translate(578 -476.701)">
      <path id="Path_117" data-name="Path 117" d="M-578,520.877V492.2h10.731c4.625,0,8.326,1.3,8.326,7.4,0,3.33-1.665,5.735-4.81,6.291h0c4.255.555,5.365,3.33,5.365,7.216,0,7.215-6.291,7.586-8.88,7.586l-10.731.185Zm5.921-16.836h4.07c1.3,0,3.145-.925,3.145-3.7a3.557,3.557,0,0,0-3.515-3.7h-3.7Zm0,12.581h3.33c1.3,0,4.07,0,4.07-4.07,0-2.59-.925-4.07-3.885-4.07h-3.515Z" transform="translate(0 0.255)" fill="#bdbdbd"/>
      <path id="Path_118" data-name="Path 118" d="M-559.88,520.877h-5.92V492.2h11.1c4.07,0,6.661,2.59,6.661,7.586,0,3.7-1.48,6.475-5.366,7.03h0c1.3.185,5.18.555,5.18,5.55,0,1.85.185,7.216.74,8.326H-553.4c-.74-1.665-.555-3.7-.555-5.55,0-3.33.37-6.29-4.255-6.29h-1.48C-559.88,509.036-559.88,520.877-559.88,520.877Zm0-16.281h2.59c2.405,0,3.145-2.405,3.145-4.255,0-2.775-1.11-3.7-3.145-3.7h-2.59Z" transform="translate(10.372 0.255)" fill="#bdbdbd"/>
      <path id="Path_119" data-name="Path 119" d="M-554.7,520.877V492.2h5.92v28.677Z" transform="translate(19.808 0.255)" fill="#bdbdbd"/>
      <path id="Path_120" data-name="Path 120" d="M-536.294,501.336c0-2.59-.37-5-3.515-5-3.7,0-3.7,5-3.7,10.546,0,8.881.925,10.546,4.255,10.546a8.382,8.382,0,0,0,2.96-.555v-6.291h-3.33v-4.44h9.251v14.431a49.456,49.456,0,0,1-8.141.925c-10.176,0-11.286-4.255-11.286-14.986,0-7.216.37-14.616,10.176-14.616,5.921,0,9.621,3.33,9.251,9.251h-5.92Z" transform="translate(23.974 0)" fill="#bdbdbd"/>
      <path id="Path_121" data-name="Path 121" d="M-524.834,503.771V492.3h5.92v28.677h-5.92V508.211h-6.845v12.766H-537.6V492.3h5.921v11.471Z" transform="translate(34.346 0.34)" fill="#bdbdbd"/>
      <path id="Path_122" data-name="Path 122" d="M-506.559,492.3v4.81h-6.66v23.867h-5.92V497.11h-6.66V492.3Z" transform="translate(44.377 0.34)" fill="#bdbdbd"/>
      <path id="Path_123" data-name="Path 123" d="M-513.5,520.877V492.2h15.726v4.44h-9.621v7.03h8.881v4.44h-8.881v8.326h9.991v4.44Z" transform="translate(54.834 0.255)" fill="#bdbdbd"/>
      <path id="Path_124" data-name="Path 124" d="M-503.015,492.3h9.991c7.956,0,9.251,5.18,9.251,14.246,0,4.44.74,14.431-9.621,14.431H-503.2V492.3Zm5.921,24.237h2.96c3.7,0,4.44-2.775,4.44-9.991,0-5.365,0-9.991-4.255-9.991h-3.145v19.982Z" transform="translate(63.59 0.34)" fill="#bdbdbd"/>
      <path id="Path_125" data-name="Path 125" d="M-477.594,501.336c0-2.59-.37-5-3.515-5-3.7,0-3.7,5-3.7,10.546,0,8.881.925,10.546,4.255,10.546a8.383,8.383,0,0,0,2.96-.555v-6.291h-3.33v-4.44h9.251v14.431a49.457,49.457,0,0,1-8.141.925c-10.176,0-11.286-4.255-11.286-14.986,0-7.216.37-14.616,10.176-14.616,5.921,0,9.621,3.33,9.251,9.251h-5.92Z" transform="translate(73.877 0)" fill="#bdbdbd"/>
      <path id="Path_126" data-name="Path 126" d="M-478.6,520.877V492.2h15.726v4.44h-9.621v7.03h8.881v4.44h-8.881v8.326h9.991v4.44Z" transform="translate(84.504 0.255)" fill="#bdbdbd"/>
    </g>
  </g>
</svg>
