<svg xmlns="http://www.w3.org/2000/svg" xmlns:xlink="http://www.w3.org/1999/xlink" width="200" height="60" viewBox="0 0 200 60">
  <defs>
    <clipPath id="clip-path">
      <rect id="Rectangle_1" data-name="Rectangle 1" width="200" height="37.04" fill="#bdbdbd"/>
    </clipPath>
    <clipPath id="clip-BuzzSumo_200x60">
      <rect width="200" height="60"/>
    </clipPath>
  </defs>
  <g id="BuzzSumo_200x60" clip-path="url(#clip-BuzzSumo_200x60)">
    <g id="buzzsumo-logo-horizontal-blue" transform="translate(0 11.48)" clip-path="url(#clip-path)">
      <path id="Path_86" data-name="Path 86" d="M163.04,41.38V41.3a11.141,11.141,0,1,1,22.28-.08v.08a11.14,11.14,0,0,1-22.28.08Zm16.68.04v-.08a5.531,5.531,0,0,0-5.6-5.56,5.349,5.349,0,0,0-5.52,5.48v.08a5.531,5.531,0,0,0,5.6,5.56A5.325,5.325,0,0,0,179.72,41.42Zm-2.56-.04v-.04a2.98,2.98,0,0,0-3.04-3,2.88,2.88,0,0,0-2.96,2.96v.04a2.98,2.98,0,0,0,3.04,3,2.88,2.88,0,0,0,2.96-2.96ZM130.2,31.82h6.84V34.5a7.062,7.062,0,0,1,5.8-3.12,5.956,5.956,0,0,1,5.6,3.16,8.133,8.133,0,0,1,6.52-3.16c4.12,0,6.64,2.6,6.64,7.12V51.3h-6.84V40.74c0-2.12-1.04-3.24-2.68-3.24s-2.8,1.12-2.8,3.24v10.6h-6.84V40.74c0-2.12-1.04-3.24-2.68-3.24-1.6,0-2.76,1.12-2.76,3.24v10.6h-6.84V31.82ZM108.88,44.58V31.82h6.84V42.38c0,2.12,1.12,3.28,2.76,3.28,1.6,0,2.84-1.16,2.84-3.28V31.82h6.84V51.34h-6.84V48.66a7.08,7.08,0,0,1-5.84,3.12c-4.12,0-6.6-2.76-6.6-7.2Zm-23.52,3,3.88-4.64a12.8,12.8,0,0,0,8.16,3.04c1.88,0,2.88-.64,2.88-1.72v-.08c0-1.04-.84-1.64-4.24-2.4-5.36-1.24-9.52-2.76-9.52-7.92v-.08c0-4.68,3.72-8.08,9.76-8.08a15.8,15.8,0,0,1,10.36,3.36l-3.48,4.92a12.56,12.56,0,0,0-7.04-2.48c-1.68,0-2.52.72-2.52,1.64v.08c0,1.16.88,1.64,4.36,2.44,5.8,1.28,9.4,3.12,9.4,7.88v.08c0,5.16-4.08,8.24-10.2,8.24a18.08,18.08,0,0,1-11.8-4.28ZM65.48,46.22l9.8-9.24h-9.8V31.82H83.56v5.12l-9.88,9.28h9.84v5.12H65.44V46.22Zm-20.08,0,9.8-9.28H45.4V31.82H63.48v5.12L53.6,46.22h9.84v5.12H45.36V46.22ZM24.08,44.58V31.82h6.84V42.38c0,2.12,1.12,3.28,2.76,3.28,1.6,0,2.84-1.16,2.84-3.28V31.82h6.84V51.34H36.52V48.66a7.08,7.08,0,0,1-5.84,3.12c-4.12,0-6.6-2.76-6.6-7.2ZM0,26.1H12.92c3.16,0,5.4.8,6.88,2.28a5.6,5.6,0,0,1,1.6,4.08v.08a5.87,5.87,0,0,1-3.88,5.64c3.04,1,5,2.76,5,6.16v.08c0,4.32-3.52,6.96-9.52,6.96H0ZM11.2,36.14c2.12,0,3.32-.72,3.32-2.2v-.08c0-1.36-1.08-2.16-3.16-2.16H6.8v4.44Zm1,9.56c2.12,0,3.36-.84,3.36-2.32V43.3c0-1.36-1.08-2.28-3.4-2.28H6.8v4.64h5.4Z" transform="translate(0 -15.42)" fill="#bdbdbd"/>
      <path id="Path_87" data-name="Path 87" d="M438.2,7.4c7.2,0,15.76,6.36,15.76,15.68a2.552,2.552,0,0,1-2.56,2.56h-.04a1.88,1.88,0,0,1-1.84-1.68,13.781,13.781,0,0,0-12.24-12.12,1.92,1.92,0,0,1-1.68-1.88V9.92a2.605,2.605,0,0,1,2.6-2.52Zm.16-7.4a2.56,2.56,0,0,0-2.56,2.56V2.6a1.823,1.823,0,0,0,1.72,1.76,21.12,21.12,0,0,1,19.52,19.4,1.8,1.8,0,0,0,1.76,1.68h.04a2.578,2.578,0,0,0,2.56-2.56C461.36,9.32,449.16,0,438.36,0Z" transform="translate(-261.36)" fill="#bdbdbd"/>
    </g>
  </g>
</svg>
