<svg xmlns="http://www.w3.org/2000/svg" xmlns:xlink="http://www.w3.org/1999/xlink" width="200" height="60" viewBox="0 0 200 60">
  <defs>
    <clipPath id="clip-GoogleTrends_200x60">
      <rect width="200" height="60"/>
    </clipPath>
  </defs>
  <g id="GoogleTrends_200x60" clip-path="url(#clip-GoogleTrends_200x60)">
    <g id="layer1" transform="translate(-730.682 -326.002)">
      <g id="g3054" transform="translate(730.682 339.003)">
        <path id="path2998" d="M2435.22,2577.345h-12.1v3.59h8.581c-.424,5.034-4.613,7.181-8.566,7.181a9.589,9.589,0,0,1,.011-19.177,9.312,9.312,0,0,1,6.469,2.595l2.514-2.6a12.779,12.779,0,0,0-9.111-3.592,13.19,13.19,0,1,0,.191,26.376c7.061,0,12.229-4.837,12.229-11.989A10.767,10.767,0,0,0,2435.22,2577.345Z" transform="translate(-2409.729 -2565.339)" fill="#bdbdbd"/>
        <path id="path3000" d="M2552.516,2612.323a8.477,8.477,0,1,0,8.506,8.507A8.376,8.376,0,0,0,2552.516,2612.323Zm.049,3.33a5.158,5.158,0,1,1-4.851,5.129A4.874,4.874,0,0,1,2552.565,2615.653Z" transform="translate(-2517.115 -2602.917)" fill="#bdbdbd"/>
        <path id="path3005" d="M2645.1,2612.323a8.477,8.477,0,1,0,8.506,8.507A8.376,8.376,0,0,0,2645.1,2612.323Zm.049,3.33a5.158,5.158,0,1,1-4.851,5.129A4.874,4.874,0,0,1,2645.148,2615.653Z" transform="translate(-2591.162 -2602.917)" fill="#bdbdbd"/>
        <path id="path3007" d="M2737.434,2612.368a8.487,8.487,0,0,0-.079,16.957,5.6,5.6,0,0,0,4.649-2.06v1.672c0,2.925-1.776,4.676-4.457,4.676a4.7,4.7,0,0,1-4.339-3.018l-3.258,1.362a8.156,8.156,0,0,0,7.625,4.993c4.531,0,7.984-2.854,7.984-8.839v-15.233H2742v1.436A5.994,5.994,0,0,0,2737.434,2612.368Zm.33,3.323c2.234,0,4.528,1.908,4.528,5.166,0,3.311-2.289,5.136-4.578,5.136a4.816,4.816,0,0,1-4.689-5.1A4.885,4.885,0,0,1,2737.763,2615.691Z" transform="translate(-2665.318 -2602.953)" fill="#bdbdbd"/>
        <path id="path3011" d="M2857.878,2612.268c-4.3,0-7.907,3.42-7.907,8.466a8.2,8.2,0,0,0,8.32,8.506,8.6,8.6,0,0,0,7.1-3.72l-2.93-1.95a4.744,4.744,0,0,1-4.153,2.333,4.36,4.36,0,0,1-4.158-2.569l11.367-4.717-.59-1.382A7.676,7.676,0,0,0,2857.878,2612.268Zm.148,3.26a3.379,3.379,0,0,1,3.137,1.811l-7.591,3.173A4.709,4.709,0,0,1,2858.026,2615.528Z" transform="translate(-2761.834 -2602.873)" fill="#bdbdbd"/>
        <path id="path3015" d="M2822.9,2594.7h3.734v-24.987H2822.9Z" transform="translate(-2740.186 -2568.841)" fill="#bdbdbd"/>
      </g>
      <g id="flowRoot3076" transform="translate(840.926 342.449)">
        <path id="path3928" d="M1476.881,1811.893a6.708,6.708,0,0,1-5.1-2.334,8.878,8.878,0,0,1,0-11.578,6.708,6.708,0,0,1,5.1-2.335,6.485,6.485,0,0,1,3.128.747,5.286,5.286,0,0,1,2.07,1.868h.124l-.124-2.116v-7.035h2.863V1811.4H1482.2v-2.116h-.124a5.291,5.291,0,0,1-2.07,1.867A6.485,6.485,0,0,1,1476.881,1811.893Zm.467-2.614a4.563,4.563,0,0,0,3.439-1.494,6.4,6.4,0,0,0,0-8.03,4.672,4.672,0,0,0-6.863.015,6.3,6.3,0,0,0,0,8A4.556,4.556,0,0,0,1477.348,1809.279Z" transform="translate(-1410.613 -1789.11)" fill="#bdbdbd"/>
        <path id="path3920" d="M1183.93,1811.4h-2.864v-19.546h-6.225v-2.739h15.314v2.739h-6.224Z" transform="translate(-1174.84 -1789.11)" fill="#bdbdbd"/>
        <path id="path3922" d="M1257.456,1838h-2.864v-15.251h2.739v2.49h.124a3.9,3.9,0,0,1,1.789-2.054,5.122,5.122,0,0,1,2.63-.809,5.452,5.452,0,0,1,2.148.374l-1.089,2.677a4.312,4.312,0,0,0-1.525-.219,3.742,3.742,0,0,0-2.754,1.23,4.42,4.42,0,0,0-1.2,3.221Z" transform="translate(-1238.626 -1815.718)" fill="#bdbdbd"/>
        <path id="path3924" d="M1309.044,1838a7.356,7.356,0,0,1-5.618-2.3,8.166,8.166,0,0,1-2.163-5.82,8.4,8.4,0,0,1,2.1-5.727,6.82,6.82,0,0,1,5.369-2.4,7.034,7.034,0,0,1,5.431,2.21,8.38,8.38,0,0,1,2.038,5.914l-.031.529h-12.045a5.178,5.178,0,0,0,1.541,3.642,4.673,4.673,0,0,0,3.315,1.338,4.108,4.108,0,0,0,4.171-2.615l2.552,1.058a6.839,6.839,0,0,1-2.459,2.972A7.143,7.143,0,0,1,1309.044,1838Zm4.108-9.959a4.06,4.06,0,0,0-1.2-2.49,4.282,4.282,0,0,0-3.284-1.183,4.107,4.107,0,0,0-2.754,1,5.088,5.088,0,0,0-1.6,2.677Z" transform="translate(-1275.953 -1815.221)" fill="#bdbdbd"/>
        <path id="path3926" d="M1392.682,1822.255v2.116h.124a5.065,5.065,0,0,1,1.96-1.852,5.691,5.691,0,0,1,2.864-.763,5.384,5.384,0,0,1,4.326,1.743,6.932,6.932,0,0,1,1.494,4.669v9.337h-2.863v-8.9q0-4.232-3.766-4.233a3.524,3.524,0,0,0-2.895,1.416,5.141,5.141,0,0,0-1.12,3.284v8.435h-2.864v-15.251Z" transform="translate(-1346.879 -1815.221)" fill="#bdbdbd"/>
        <path id="path3930" d="M1566.558,1838a6.851,6.851,0,0,1-4.217-1.245,7.372,7.372,0,0,1-2.444-3.112l2.552-1.058a4.221,4.221,0,0,0,4.141,2.863,3.778,3.778,0,0,0,2.194-.591,1.812,1.812,0,0,0,.856-1.556q0-1.494-2.086-2.023l-3.081-.747a7.328,7.328,0,0,1-2.77-1.416,3.414,3.414,0,0,1-1.307-2.816,3.853,3.853,0,0,1,1.79-3.284,7.188,7.188,0,0,1,4.249-1.261,7.076,7.076,0,0,1,3.61.919,5.178,5.178,0,0,1,2.272,2.63l-2.49,1.027a3.378,3.378,0,0,0-3.486-2.023,4.069,4.069,0,0,0-2.147.529,1.612,1.612,0,0,0-.872,1.432q0,1.307,2.023,1.774l3.019.715a5.7,5.7,0,0,1,3.175,1.712,4.129,4.129,0,0,1,1.027,2.739,4.242,4.242,0,0,1-1.681,3.424A6.629,6.629,0,0,1,1566.558,1838Z" transform="translate(-1482.808 -1815.221)" fill="#bdbdbd"/>
      </g>
    </g>
  </g>
</svg>
