<svg xmlns="http://www.w3.org/2000/svg" xmlns:xlink="http://www.w3.org/1999/xlink" width="200" height="60" viewBox="0 0 200 60">
  <defs>
    <clipPath id="clip-GoogleAnalytics_200x60_Black_3">
      <rect width="200" height="60"/>
    </clipPath>
  </defs>
  <g id="GoogleAnalytics_200x60_Black_3" data-name="GoogleAnalytics_200x60_Black – 3" clip-path="url(#clip-GoogleAnalytics_200x60_Black_3)">
    <g id="google_analytics-horizontal" transform="translate(-30.192 37.666)">
      <g id="Group_20" data-name="Group 20" transform="translate(68.034 -16.58)">
        <path id="Path_102" data-name="Path 102" d="M207.458-7.784l2.695,7.075H204.93Zm-1.011-2.358-5.9,15.5h2.19l1.516-4.211h6.569l1.516,4.211h2.19l-5.9-15.5h-2.19Zm31.835,15.5H240.3v-15.5h-2.021Zm-20.725-9.1a4.3,4.3,0,0,1,3.369-1.853c2.695,0,4.043,1.853,4.043,4.548V5.523h-2.021V-.709c0-2.19-1.179-3.031-2.695-3.031a3.138,3.138,0,0,0-2.864,3.2v5.9h-2.021V-5.425h2.021l.168,1.685Zm9.1,5.9c0-2.358,2.19-3.706,4.717-3.706a4.59,4.59,0,0,1,2.864.674v-.337a2.517,2.517,0,0,0-2.695-2.527,2.467,2.467,0,0,0-2.527,1.516l-1.848-.843c.337-1.011,1.685-2.527,4.387-2.527,2.527,0,4.717,1.516,4.717,4.548v6.4h-1.853V3.831h-.168a4.057,4.057,0,0,1-3.537,1.853c-2.19,0-4.043-1.347-4.043-3.537M234.247.8a4.23,4.23,0,0,0-2.527-.674c-2.021,0-2.864,1.178-2.864,2.021,0,1.178,1.179,1.685,2.19,1.685A3.284,3.284,0,0,0,234.246.8" transform="translate(-125.593 12.164)" fill="#bdbdbd"/>
        <path id="Path_103" data-name="Path 103" d="M264.655,12.291l2.358-5.565L262.8-3.044h2.021l3.2,7.411,3.2-7.411h2.021l-6.568,15.335h-2.021ZM294.3.5a3.2,3.2,0,0,0-2.863-2.19,3.445,3.445,0,0,0-3.2,3.706,3.446,3.446,0,0,0,3.2,3.706A3.282,3.282,0,0,0,294.3,3.7l1.685,1.011a4.947,4.947,0,0,1-4.548,3.031,5.482,5.482,0,0,1-5.222-5.727c0-3.369,2.358-5.727,5.222-5.727A4.948,4.948,0,0,1,295.986-.68L294.3.5Z" transform="translate(-147.087 9.944)" fill="#bdbdbd" fill-rule="evenodd"/>
        <path id="Path_104" data-name="Path 104" d="M311.849,8c2.695,0,4.043-1.516,4.043-3.369,0-4.043-5.9-2.527-5.9-4.884,0-.842.674-1.347,1.853-1.347a3.371,3.371,0,0,1,2.864,1.347l1.178-1.178a6.262,6.262,0,0,0-4.211-2.021c-2.527,0-3.874,1.516-3.874,3.369,0,3.874,6.064,2.527,6.064,4.548,0,1.011-.674,1.685-2.021,1.685a3.341,3.341,0,0,1-2.695-1.685l-1.516,1.178C308.649,6.656,310.165,8,311.849,8Zm-19.2-.337h2.021V-3.115h-2.021V7.665Z" transform="translate(-157.392 9.854)" fill="#bdbdbd"/>
        <path id="Path_105" data-name="Path 105" d="M289.048-10.914A1.329,1.329,0,0,1,290.4-9.567a1.329,1.329,0,0,1-1.347,1.347A1.45,1.45,0,0,1,287.7-9.567,1.45,1.45,0,0,1,289.048-10.914ZM286.185,3.4l.337,1.516H284.5c-1.853,0-2.695-1.347-2.695-3.369V-3.67h-2.021V-5.691h2.021v-3.2h2.021v3.2h2.358V-3.67h-2.358V1.895c0,1.516,1.178,1.516,2.358,1.516Z" transform="translate(-152.951 12.431)" fill="#bdbdbd" fill-rule="evenodd"/>
        <path id="Path_106" data-name="Path 106" d="M95.151-4.976v2.527h5.9A5.087,5.087,0,0,1,99.7.582a6.051,6.051,0,0,1-4.548,1.853,6.437,6.437,0,0,1-6.4-6.569,6.544,6.544,0,0,1,6.4-6.569,6.573,6.573,0,0,1,4.387,1.685l1.685-1.685a8.762,8.762,0,0,0-6.064-2.527,9.134,9.134,0,0,0-9.1,8.928,9.127,9.127,0,0,0,9.089,8.927A7.88,7.88,0,0,0,101.384,2.1a7.957,7.957,0,0,0,2.19-5.727,4.19,4.19,0,0,0-.168-1.516H95.157Zm14.992-2.015a5.578,5.578,0,0,0-5.727,5.727,5.578,5.578,0,0,0,5.727,5.727,5.681,5.681,0,0,0,5.727-5.727A5.578,5.578,0,0,0,110.143-6.991Zm0,9.264a3.393,3.393,0,0,1-3.2-3.537,3.393,3.393,0,0,1,3.2-3.537,3.289,3.289,0,0,1,3.2,3.537A3.289,3.289,0,0,1,110.143,2.273Zm27.625-8.086a4.369,4.369,0,0,0-3.2-1.347,5.617,5.617,0,0,0-5.39,5.727,5.617,5.617,0,0,0,5.39,5.727A3.966,3.966,0,0,0,137.6,2.947h.168v.842c0,2.19-1.178,3.369-3.031,3.369a3.222,3.222,0,0,1-2.864-2.021l-2.19.842a5.561,5.561,0,0,0,5.053,3.369c3.031,0,5.565-1.685,5.565-6.064V-7.158h-2.358v1.347ZM134.9,2.273a3.265,3.265,0,0,1-3.031-3.537A3.266,3.266,0,0,1,134.9-4.8a3.266,3.266,0,0,1,3.031,3.537A3.266,3.266,0,0,1,134.9,2.273Zm-12.3-9.264a5.578,5.578,0,0,0-5.727,5.727,5.578,5.578,0,0,0,5.727,5.727,5.681,5.681,0,0,0,5.727-5.727A5.484,5.484,0,0,0,122.607-6.991Zm0,9.264a3.393,3.393,0,0,1-3.2-3.537,3.393,3.393,0,0,1,3.2-3.537,3.289,3.289,0,0,1,3.2,3.537A3.289,3.289,0,0,1,122.607,2.273Zm19.54-15.335h2.527V4.457h-2.527ZM151.58,2.267A3.262,3.262,0,0,1,148.717.582l7.749-3.2-.337-.674A5.413,5.413,0,0,0,151.244-7a5.408,5.408,0,0,0-5.39,5.727,5.68,5.68,0,0,0,5.727,5.727,6.125,6.125,0,0,0,4.884-2.527L154.444.582a3.261,3.261,0,0,1-2.864,1.685Zm-.168-7.075a2.258,2.258,0,0,1,2.19,1.347l-5.222,2.19c0-2.527,1.685-3.537,3.031-3.537Z" transform="translate(-86.062 13.231)" fill="#bdbdbd"/>
      </g>
      <g id="Group_22" data-name="Group 22" transform="translate(33.85 -22.93)">
        <path id="Path_107" data-name="Path 107" d="M34.441,5.762v22.9a3.694,3.694,0,0,0,3.643,3.989,3.646,3.646,0,0,0,3.643-3.989V5.935a3.647,3.647,0,0,0-3.643-3.816A3.7,3.7,0,0,0,34.441,5.762Z" transform="translate(-15.361 -2.119)" fill="#bdbdbd"/>
        <g id="Group_21" data-name="Group 21" transform="translate(0 11.621)">
          <path id="Path_108" data-name="Path 108" d="M19.87,23.512V34.787a3.694,3.694,0,0,0,3.643,3.989,3.646,3.646,0,0,0,3.643-3.989v-11.1a3.647,3.647,0,0,0-3.643-3.816A3.7,3.7,0,0,0,19.87,23.512Z" transform="translate(-10.33 -19.87)" fill="#bdbdbd"/>
          <circle id="Ellipse_5" data-name="Ellipse 5" cx="3.643" cy="3.643" r="3.643" transform="translate(0 11.621)" fill="#bdbdbd"/>
        </g>
      </g>
    </g>
  </g>
</svg>
