<svg xmlns="http://www.w3.org/2000/svg" xmlns:xlink="http://www.w3.org/1999/xlink" width="200" height="60" viewBox="0 0 200 60">
  <defs>
    <clipPath id="clip-GoogleSearchConsole_200x60_5">
      <rect width="200" height="60"/>
    </clipPath>
  </defs>
  <g id="GoogleSearchConsole_200x60_5" data-name="GoogleSearchConsole_200x60 – 5" clip-path="url(#clip-GoogleSearchConsole_200x60_5)">
    <g id="Artboard" transform="translate(-0.124 19.288)">
      <g id="sc_logo_lockup" transform="translate(0.124 0.018)">
        <g id="XMLID_41_" transform="translate(70.287 1.454)">
          <path id="Shape" d="M5.112,15.182a5.412,5.412,0,0,1-3.083-1.028A4.826,4.826,0,0,1,.053,11.262l1.707-.7a3.85,3.85,0,0,0,1.249,2.008,3.11,3.11,0,0,0,2.118.822A3.359,3.359,0,0,0,7.2,12.763a2.037,2.037,0,0,0,.854-1.723A2.2,2.2,0,0,0,7.2,9.175,8.5,8.5,0,0,0,4.479,7.957,7.372,7.372,0,0,1,1.571,6.392a3.276,3.276,0,0,1-1-2.466A3.616,3.616,0,0,1,1.808,1.207,4.506,4.506,0,0,1,5.033.053,4.588,4.588,0,0,1,8.021.97a4.292,4.292,0,0,1,1.5,2.008l-1.707.711a2.6,2.6,0,0,0-.9-1.281,2.79,2.79,0,0,0-1.85-.585,2.9,2.9,0,0,0-1.834.6A1.828,1.828,0,0,0,2.472,3.91a1.686,1.686,0,0,0,.7,1.36,6.538,6.538,0,0,0,2.055,1c.711.237,1.312.458,1.786.664a9.388,9.388,0,0,1,1.454.854A3.425,3.425,0,0,1,9.57,9.112a4.3,4.3,0,0,1,.379,1.85,3.889,3.889,0,0,1-.443,1.881,3.458,3.458,0,0,1-1.154,1.312A6.088,6.088,0,0,1,6.8,14.9,4.816,4.816,0,0,1,5.112,15.182Z" transform="translate(-0.053 -0.053)" fill="#bdbdbd"/>
          <path id="Shape-2" data-name="Shape" d="M17.306,15.712a4.779,4.779,0,0,1-3.652-1.5,5.324,5.324,0,0,1-1.407-3.778A5.536,5.536,0,0,1,13.607,6.7,4.432,4.432,0,0,1,17.1,5.135a4.543,4.543,0,0,1,3.525,1.439,5.458,5.458,0,0,1,1.328,3.842l-.016.348H14.113a3.413,3.413,0,0,0,1,2.371,3.011,3.011,0,0,0,2.15.869A2.688,2.688,0,0,0,19.978,12.3l1.66.7a4.354,4.354,0,0,1-1.6,1.929A4.513,4.513,0,0,1,17.306,15.712Zm2.672-6.466A2.659,2.659,0,0,0,19.2,7.633a2.8,2.8,0,0,0-2.134-.775,2.671,2.671,0,0,0-1.786.648,3.3,3.3,0,0,0-1.043,1.739Z" transform="translate(-1.323 -0.582)" fill="#bdbdbd"/>
          <path id="Shape-3" data-name="Shape" d="M27.576,15.712a3.865,3.865,0,0,1-2.64-.917,2.987,2.987,0,0,1-1.059-2.4,2.987,2.987,0,0,1,1.249-2.545,5.07,5.07,0,0,1,3.1-.917,5.411,5.411,0,0,1,2.688.6V9.246a2.257,2.257,0,0,0-.743-1.755,2.67,2.67,0,0,0-1.834-.664,2.911,2.911,0,0,0-1.47.379,1.908,1.908,0,0,0-.9,1.059l-1.707-.727a3.724,3.724,0,0,1,1.36-1.644,4.354,4.354,0,0,1,2.672-.759,4.594,4.594,0,0,1,3.162,1.107A3.96,3.96,0,0,1,32.7,9.372V15.4H30.911V14.02h-.079A3.639,3.639,0,0,1,27.576,15.712Zm.3-1.692a3,3,0,0,0,2.087-.854,2.653,2.653,0,0,0,.949-2.039,3.691,3.691,0,0,0-2.371-.648,3.048,3.048,0,0,0-2.039.585,1.783,1.783,0,0,0-.7,1.375,1.309,1.309,0,0,0,.632,1.154A2.523,2.523,0,0,0,27.876,14.02Z" transform="translate(-2.534 -0.582)" fill="#bdbdbd"/>
          <path id="Shape-4" data-name="Shape" d="M37.565,15.408H35.7V5.5h1.786V7.108h.079a2.481,2.481,0,0,1,1.17-1.328,3.336,3.336,0,0,1,1.707-.522,3.6,3.6,0,0,1,1.391.237l-.711,1.739a2.771,2.771,0,0,0-1-.142A2.41,2.41,0,0,0,38.34,7.9a2.865,2.865,0,0,0-.775,2.087Z" transform="translate(-3.766 -0.595)" fill="#bdbdbd"/>
          <path id="Shape-5" data-name="Shape" d="M47.442,15.713a4.886,4.886,0,0,1-3.668-1.5,5.239,5.239,0,0,1-1.439-3.778,5.239,5.239,0,0,1,1.439-3.778,4.828,4.828,0,0,1,3.668-1.5,4.5,4.5,0,0,1,2.751.806A4.686,4.686,0,0,1,51.789,8l-1.707.711a2.763,2.763,0,0,0-2.767-1.865,2.9,2.9,0,0,0-2.182,1.012,3.627,3.627,0,0,0-.949,2.577,3.627,3.627,0,0,0,.949,2.577,3.03,3.03,0,0,0,5.059-.854l1.66.711a4.828,4.828,0,0,1-1.628,2.039A4.668,4.668,0,0,1,47.442,15.713Z" transform="translate(-4.457 -0.584)" fill="#bdbdbd"/>
          <path id="Shape-6" data-name="Shape" d="M56.077.424V4.992L56,6.368h.079a3.261,3.261,0,0,1,1.281-1.2,3.7,3.7,0,0,1,1.865-.49,3.489,3.489,0,0,1,2.814,1.138A4.512,4.512,0,0,1,63,8.85V14.9H61.136V9.118c0-1.834-.822-2.751-2.45-2.751a2.278,2.278,0,0,0-1.881.917,3.326,3.326,0,0,0-.727,2.134V14.9H54.212V.424Z" transform="translate(-5.694 -0.092)" fill="#bdbdbd"/>
        </g>
        <g id="XMLID_39_" transform="translate(131.231 1.439)">
          <path id="Shape-7" data-name="Shape" d="M7.666,15.18a7.283,7.283,0,0,1-5.359-2.166A7.34,7.34,0,0,1,.141,7.608,7.366,7.366,0,0,1,2.307,2.2,7.283,7.283,0,0,1,7.666.035a6.728,6.728,0,0,1,5.328,2.371L11.7,3.656A4.857,4.857,0,0,0,7.666,1.822a5.523,5.523,0,0,0-4,1.6A5.585,5.585,0,0,0,2.038,7.608,5.585,5.585,0,0,0,3.667,11.8a5.523,5.523,0,0,0,4,1.6,5.718,5.718,0,0,0,4.458-2.1l1.3,1.3a7.267,7.267,0,0,1-2.482,1.9A7.6,7.6,0,0,1,7.666,15.18Z" transform="translate(-0.141 -0.035)" fill="#bdbdbd"/>
          <path id="Shape-8" data-name="Shape" d="M17.2,6.672a4.828,4.828,0,0,1,3.668-1.5,4.886,4.886,0,0,1,3.668,1.5,5.239,5.239,0,0,1,1.439,3.778,5.239,5.239,0,0,1-1.439,3.778,4.828,4.828,0,0,1-3.668,1.5,4.886,4.886,0,0,1-3.668-1.5,5.239,5.239,0,0,1-1.439-3.778A5.214,5.214,0,0,1,17.2,6.672Zm1.375,6.371a3.134,3.134,0,0,0,4.553,0,3.507,3.507,0,0,0,.964-2.593,3.507,3.507,0,0,0-.964-2.593,3.134,3.134,0,0,0-4.553,0,3.507,3.507,0,0,0-.964,2.593A3.665,3.665,0,0,0,18.573,13.043Z" transform="translate(-1.768 -0.57)" fill="#bdbdbd"/>
          <path id="Shape-9" data-name="Shape" d="M30.392,5.487V6.862h.079a3.261,3.261,0,0,1,1.281-1.2,3.7,3.7,0,0,1,1.865-.49,3.489,3.489,0,0,1,2.814,1.138A4.512,4.512,0,0,1,37.4,9.344V15.4H35.53V9.613c0-1.834-.822-2.751-2.45-2.751a2.278,2.278,0,0,0-1.881.917,3.326,3.326,0,0,0-.727,2.134V15.4H28.606V5.487Z" transform="translate(-3.106 -0.57)" fill="#bdbdbd"/>
          <path id="Shape-10" data-name="Shape" d="M43.969,15.713a4.423,4.423,0,0,1-2.735-.806,4.7,4.7,0,0,1-1.581-2.024l1.66-.7A2.732,2.732,0,0,0,44,14.053a2.441,2.441,0,0,0,1.423-.379,1.2,1.2,0,0,0,.553-1.012c0-.648-.458-1.091-1.36-1.312l-2.008-.49a4.877,4.877,0,0,1-1.8-.917,2.222,2.222,0,0,1-.854-1.834,2.529,2.529,0,0,1,1.17-2.134,4.969,4.969,0,0,1,5.106-.221A3.244,3.244,0,0,1,47.7,7.461l-1.613.664a2.2,2.2,0,0,0-2.261-1.312,2.561,2.561,0,0,0-1.391.348,1.054,1.054,0,0,0-.569.933c0,.569.443.949,1.312,1.154l1.96.458a3.826,3.826,0,0,1,2.071,1.107,2.693,2.693,0,0,1,.664,1.786,2.783,2.783,0,0,1-1.091,2.229A4.285,4.285,0,0,1,43.969,15.713Z" transform="translate(-4.257 -0.568)" fill="#bdbdbd"/>
          <path id="Shape-11" data-name="Shape" d="M51.045,6.672a4.828,4.828,0,0,1,3.668-1.5,4.886,4.886,0,0,1,3.668,1.5,5.239,5.239,0,0,1,1.439,3.778,5.239,5.239,0,0,1-1.439,3.778,4.828,4.828,0,0,1-3.668,1.5,4.886,4.886,0,0,1-3.668-1.5,5.239,5.239,0,0,1-1.439-3.778A5.214,5.214,0,0,1,51.045,6.672Zm1.391,6.371a3.134,3.134,0,0,0,4.553,0,3.507,3.507,0,0,0,.964-2.593,3.507,3.507,0,0,0-.964-2.593,3.134,3.134,0,0,0-4.553,0,3.507,3.507,0,0,0-.964,2.593A3.532,3.532,0,0,0,52.436,13.043Z" transform="translate(-5.293 -0.57)" fill="#bdbdbd"/>
          <path id="Shape-12" data-name="Shape" d="M64.354,14.9H62.488V.424h1.865Z" transform="translate(-6.635 -0.076)" fill="#bdbdbd"/>
          <path id="Shape-13" data-name="Shape" d="M71.129,15.712a4.779,4.779,0,0,1-3.652-1.5,5.324,5.324,0,0,1-1.407-3.778A5.536,5.536,0,0,1,67.43,6.7a4.432,4.432,0,0,1,3.494-1.565,4.543,4.543,0,0,1,3.525,1.439,5.458,5.458,0,0,1,1.328,3.842l-.016.348H67.936a3.413,3.413,0,0,0,1,2.371,3.011,3.011,0,0,0,2.15.869A2.688,2.688,0,0,0,73.8,12.3l1.66.7a4.354,4.354,0,0,1-1.6,1.929A4.545,4.545,0,0,1,71.129,15.712ZM73.8,9.246a2.659,2.659,0,0,0-.775-1.613,2.8,2.8,0,0,0-2.134-.775,2.67,2.67,0,0,0-1.786.648,3.3,3.3,0,0,0-1.043,1.739Z" transform="translate(-7.008 -0.566)" fill="#bdbdbd"/>
        </g>
        <g id="XMLID_37_">
          <path id="Shape-14" data-name="Shape" d="M.124,8.317A8.418,8.418,0,0,1,8.55.018,7.923,7.923,0,0,1,14.241,2.31l-1.6,1.6A5.752,5.752,0,0,0,8.55,2.294,5.945,5.945,0,0,0,2.606,8.317,5.945,5.945,0,0,0,8.55,14.341a5.55,5.55,0,0,0,4.189-1.66,4.709,4.709,0,0,0,1.233-2.846H8.55V7.574h7.636A7.55,7.55,0,0,1,16.312,9a7.424,7.424,0,0,1-1.96,5.3,7.58,7.58,0,0,1-5.786,2.324A8.432,8.432,0,0,1,.124,8.317Z" transform="translate(-0.124 -0.018)" fill="#bdbdbd"/>
          <path id="Shape-15" data-name="Shape" d="M24.436,6.618a5.261,5.261,0,0,0-5.359,5.343,5.359,5.359,0,0,0,10.719,0A5.261,5.261,0,0,0,24.436,6.618Zm0,8.568a3.094,3.094,0,0,1-3.02-3.241,3.027,3.027,0,1,1,6.039,0A3.094,3.094,0,0,1,24.436,15.186Z" transform="translate(-2.098 -0.705)" fill="#bdbdbd"/>
          <path id="Shape-16" data-name="Shape" d="M37.495,6.618a5.261,5.261,0,0,0-5.359,5.343,5.359,5.359,0,0,0,10.719,0A5.261,5.261,0,0,0,37.495,6.618Zm0,8.568a3.094,3.094,0,0,1-3.02-3.241,3.027,3.027,0,1,1,6.039,0A3.094,3.094,0,0,1,37.495,15.186Z" transform="translate(-3.458 -0.705)" fill="#bdbdbd"/>
          <path id="Shape-17" data-name="Shape" d="M53.209,6.932V7.8H53.13a3.674,3.674,0,0,0-2.814-1.2,5.348,5.348,0,0,0,0,10.687A3.628,3.628,0,0,0,53.13,16.07h.079v.775c0,2.039-1.091,3.13-2.846,3.13a2.944,2.944,0,0,1-2.688-1.9l-2.039.854a5.092,5.092,0,0,0,4.743,3.162c2.751,0,5.075-1.613,5.075-5.565v-9.6Zm-2.688,8.252a3.072,3.072,0,0,1-2.972-3.225A3.091,3.091,0,0,1,50.522,8.7a3.005,3.005,0,0,1,2.846,3.257A2.967,2.967,0,0,1,50.522,15.184Z" transform="translate(-4.818 -0.703)" fill="#bdbdbd"/>
          <rect id="Rectangle-path" width="2.34" height="15.698" transform="translate(52.249 0.569)" fill="#bdbdbd"/>
          <path id="Shape-18" data-name="Shape" d="M67.625,15.186a2.735,2.735,0,0,1-2.593-1.613l7.146-2.956-.237-.6a4.952,4.952,0,0,0-4.569-3.4,5.082,5.082,0,0,0-5.043,5.343,5.228,5.228,0,0,0,5.3,5.343,5.349,5.349,0,0,0,4.458-2.371l-1.818-1.217A3.074,3.074,0,0,1,67.625,15.186Zm-.174-6.513a2.031,2.031,0,0,1,1.976,1.138l-4.774,1.976A2.932,2.932,0,0,1,67.452,8.673Z" transform="translate(-6.603 -0.705)" fill="#bdbdbd"/>
        </g>
      </g>
    </g>
  </g>
</svg>
