<svg xmlns="http://www.w3.org/2000/svg" xmlns:xlink="http://www.w3.org/1999/xlink" width="200" height="60" viewBox="0 0 200 60">
  <defs>
    <clipPath id="clip-GTM_200x60_Black_1">
      <rect width="200" height="60"/>
    </clipPath>
  </defs>
  <g id="GTM_200x60_Black_1" data-name="GTM_200x60_Black – 1" clip-path="url(#clip-GTM_200x60_Black_1)">
    <g id="forwarderlogo_140_GoogleTagManager" transform="translate(0.674 13.369)">
      <path id="Path_95" data-name="Path 95" d="M320.805,60.583q-1.05,2.63-2.1,5.26-.894,2.252-1.79,4.5h-1.284q-1.926-4.851-3.849-9.681a.371.371,0,0,0-.109-.13c-.1,0-.1.062-.071.137.076,3.214.021,6.427.04,9.667h-1.467V57.922h2.152l3.889,10,.109.01,3.886-10.017H322.4V70.33h-1.507v-8.1a8.667,8.667,0,0,0,.014-1.656c0-.057,0,.024-.029-.023C320.861,60.533,320.823,60.553,320.805,60.583Zm-94.059-1.055-1.142,1c-.346-.206-.657-.587-1.086-.833a4.921,4.921,0,0,0-7.132,3.191,5.079,5.079,0,0,0,2.152,5.516,4.934,4.934,0,0,0,5.968-.5,4.355,4.355,0,0,0,1.225-2.772H222.2a5.633,5.633,0,0,1-.04-1.4h6.034a5.963,5.963,0,0,1-1.549,5.138,6.056,6.056,0,0,1-5.66,1.642,6.282,6.282,0,0,1-5.156-5.024,6.554,6.554,0,0,1,2.945-6.954,6.63,6.63,0,0,1,7.784.75C226.617,59.362,226.662,59.429,226.747,59.528ZM335.242,70.343h-1.429V61.494h1.372c.156.355.009.724.1,1.11.282-.241.5-.52.783-.735a3.591,3.591,0,0,1,4.406.142,3.321,3.321,0,0,1,.951,2.519c.017,1.876.01,3.752.01,5.629a.956.956,0,0,1-.04.184h-1.412a.789.789,0,0,1-.076-.52c-.014-1.732,0-3.465-.043-5.2a1.832,1.832,0,0,0-1.386-1.949,2.309,2.309,0,0,0-2.569.9A3.565,3.565,0,0,0,335.3,65.7c-.012,1.386,0,2.772,0,4.158A.993.993,0,0,1,335.242,70.343Zm-52.513.005H281.19V59.375h-3.465V57.934h8.4v1.421h-3.4Zm94.925-8.919v1.528c-.272.087-.468-.083-.683-.133a2.4,2.4,0,0,0-2.827,2.02A12.313,12.313,0,0,0,374.062,67V70.33h-1.5V61.5h1.386a10.873,10.873,0,0,1,.081,1.145c1.292-1.365,2.5-1.767,3.622-1.218ZM262.48,70.35h-1.433V57.924h1.433Zm41.23-8.432c0-.139.043-.291-.073-.409a4.052,4.052,0,0,0-1.4.031v1.114a2.774,2.774,0,0,1-.213-.194,3.9,3.9,0,0,0-5.6-.173,5.323,5.323,0,0,0-.835,6.063,3.947,3.947,0,0,0,6.471.9.106.106,0,0,1,.173-.033,7.138,7.138,0,0,1-.024,1.135,2.8,2.8,0,0,1-5.39.911l-1.376.575a2.4,2.4,0,0,0,.541,1.059,4.082,4.082,0,0,0,3.361,1.476,4.2,4.2,0,0,0,3.465-1.445,4.53,4.53,0,0,0,.9-2.959C303.731,67.286,303.713,64.6,303.71,61.919ZM301.967,67.3a2.755,2.755,0,0,1-2.5,1.824,2.678,2.678,0,0,1-2.621-1.694,3.844,3.844,0,0,1,.076-3.305,2.736,2.736,0,0,1,5.062.338,4,4,0,0,1,.237,1.485A4.149,4.149,0,0,1,301.967,67.3Zm-43.082-5.428c0-.125.035-.26-.071-.379H257.4v1.183a3.921,3.921,0,0,0-6.157.017,5.167,5.167,0,0,0-.669,5.168,3.97,3.97,0,0,0,4.555,2.6,3.572,3.572,0,0,0,2.252-1.36c.2,1.9-.333,3.146-1.559,3.638a3.2,3.2,0,0,1-1.906.152,2.651,2.651,0,0,1-1.906-1.641l-1.362.577a1.691,1.691,0,0,0,.3.729,3.993,3.993,0,0,0,3.538,1.8A4.222,4.222,0,0,0,258,72.928a4.35,4.35,0,0,0,.892-2.872C258.885,67.334,258.885,64.613,258.885,61.877Zm-1.814,5.6a2.678,2.678,0,0,1-2.732,1.648,2.793,2.793,0,0,1-2.477-2.145,3.872,3.872,0,0,1-.123-1.039,3.2,3.2,0,0,1,1.145-2.758,2.689,2.689,0,0,1,4.109.915,3.772,3.772,0,0,1,.069,3.38Zm103.613-5.966h-1.41v1.13c-.087-.057-.116-.066-.13-.087a3.9,3.9,0,0,0-6.011.1,5.488,5.488,0,0,0-.511,5.681,3.959,3.959,0,0,0,6.562.828l.068.016c.173,2.292-.6,3.224-1.679,3.616-1.493.544-2.566.109-3.759-1.507l-1.31.549a1.372,1.372,0,0,0,.281.722,3.924,3.924,0,0,0,3.312,1.807,4.316,4.316,0,0,0,3.735-1.41A4.405,4.405,0,0,0,360.738,70c.017-2.685,0-5.371,0-8.056a.718.718,0,0,0-.054-.433Zm-1.419,4.364a3.1,3.1,0,0,1-1.668,3,2.8,2.8,0,0,1-3.972-2.382,4.132,4.132,0,0,1,.27-2.205,2.761,2.761,0,0,1,5.268.6A3.494,3.494,0,0,1,359.265,65.87Zm11.557.348a3.135,3.135,0,0,0,.052-.4,6.153,6.153,0,0,0-.031-.693,3.982,3.982,0,0,0-2.45-3.59,4.1,4.1,0,0,0-4.437.6,4.8,4.8,0,0,0-1.611,4.276,4.409,4.409,0,0,0,6.159,3.908,3.866,3.866,0,0,0,2.19-2.06l-1.265-.606c-1.325,1.559-2.5,1.944-3.875,1.3a2.9,2.9,0,0,1-1.632-2.741Zm-4.128-3.638a2.473,2.473,0,0,1,2.5,2.323h-5.163a2.661,2.661,0,0,1,2.666-2.321Zm-97.558,3.633H272.6a2.871,2.871,0,0,0,.028-1.156,4.168,4.168,0,0,0-6.294-3.331,4.812,4.812,0,0,0-2.127,5.222,4.285,4.285,0,0,0,5.024,3.648,4.143,4.143,0,0,0,3.269-2.328l-1.279-.622c-1.256,1.575-2.564,1.978-3.964,1.268a2.815,2.815,0,0,1-1.518-2.7Zm-.693-3.638A2.45,2.45,0,0,1,270.97,64.9h-5.128a2.631,2.631,0,0,1,2.6-2.321Zm25.115,2.015a3.094,3.094,0,0,0-1.386-2.734,4.579,4.579,0,0,0-3.617-.53,3.569,3.569,0,0,0-2.332,1.559,3.837,3.837,0,0,0,1.142.866c1.266-1.2,2.54-1.49,3.68-.832a2.011,2.011,0,0,1,1.01,2.205,1.546,1.546,0,0,1-.2-.049,6.133,6.133,0,0,0-3.567-.255,2.908,2.908,0,0,0-1.828,4.641,3.709,3.709,0,0,0,5.227.173c.123-.125.2-.3.4-.374.1.379-.031.743.087,1.084h1.386c0-1.954.016-3.856,0-5.757Zm-4.468,4.678a1.614,1.614,0,0,1-1.528-2.2,1.732,1.732,0,0,1,1.27-1.013,4.4,4.4,0,0,1,3.028.346,1.731,1.731,0,0,1,.243.173,2.851,2.851,0,0,1-3.013,2.692Zm42.666-4.937a2.9,2.9,0,0,0-1.149-2.316,4.686,4.686,0,0,0-5.552.173,1.609,1.609,0,0,0-.6.785c.366.272.721.539,1.1.821,1.287-1.253,2.6-1.544,3.756-.866a1.969,1.969,0,0,1,.953,2.178c-.08-.021-.163-.038-.241-.066a6.133,6.133,0,0,0-3.529-.222,2.906,2.906,0,0,0-1.842,4.6,3.7,3.7,0,0,0,4.712.667,8.157,8.157,0,0,0,.934-.838c.111.395-.019.762.094,1.086h1.386c-.005-2.02.021-4.009-.017-6Zm-4.96,4.818a1.544,1.544,0,0,1-.482-2.761,3.855,3.855,0,0,1,3.985.208A2.759,2.759,0,0,1,326.8,69.148Zm23.814-4.264a5.537,5.537,0,0,0-.029-.778,3.066,3.066,0,0,0-1.156-2.1,4.716,4.716,0,0,0-5.319,0,2.37,2.37,0,0,0-.84.958l1.09.819c1.592-1.3,2.692-1.53,3.829-.807a1.98,1.98,0,0,1,.9,2.159,6.09,6.09,0,0,0-3.756-.308,2.839,2.839,0,0,0-2.316,2.027,2.775,2.775,0,0,0,.892,3.018,3.787,3.787,0,0,0,4.224.246,4.568,4.568,0,0,0,.979-.9c.14.411,0,.781.106,1.116h1.4C350.612,68.49,350.612,66.691,350.61,64.885Zm-4.93,4.276a1.561,1.561,0,0,1-.2-2.968,4.186,4.186,0,0,1,3.65.314A2.754,2.754,0,0,1,345.68,69.16Zm-107.008-3.5a4.565,4.565,0,1,0-9.128.21l.028.464a4.516,4.516,0,0,0,6.649,3.8,4.469,4.469,0,0,0,2.451-4.47Zm-2.134,2.3a2.945,2.945,0,0,1-3.247,1.157,3.156,3.156,0,0,1-2.221-2.89v-.3a3.2,3.2,0,0,1,1.457-2.869,2.916,2.916,0,0,1,4.056.9,3.733,3.733,0,0,1-.045,4.007Zm7.94-6.776A4.728,4.728,0,1,0,248.993,66,4.5,4.5,0,0,0,244.477,61.184Zm-.192,8.038a2.829,2.829,0,0,1-2.318-1.306,3.7,3.7,0,0,1,.123-4.17,3,3,0,0,1,3.132-1.039,3.136,3.136,0,0,1,2.2,2.633c.023.215.031.431.042.565a3.1,3.1,0,0,1-3.176,3.318Z" transform="translate(-178.327 -47.635)" fill="#bdbdbd"/>
      <path id="Path_96" data-name="Path 96" d="M0,0H33.263V33.263H0Z" fill="none"/>
      <path id="Path_97" data-name="Path 97" d="M86.053,96.768,80.76,91.607,92.126,80l5.48,5.371Z" transform="translate(-66.769 -66.141)" fill="#bdbdbd"/>
      <path id="Path_98" data-name="Path 98" d="M25.931,19.384,20.657,14,9.126,25.422a3.811,3.811,0,0,0,0,5.384L20.484,42.239l5.371-5.024-8.653-9.1Z" transform="translate(-6.625 -11.575)" fill="#bdbdbd"/>
      <path id="Path_99" data-name="Path 99" d="M91.945,20.546,80.511,9.112a3.811,3.811,0,1,0-5.39,5.39L86.556,25.935a3.811,3.811,0,1,0,5.39-5.39Z" transform="translate(-61.184 -6.61)" fill="#bdbdbd"/>
      <circle id="Ellipse_3" data-name="Ellipse 3" cx="3.817" cy="3.817" r="3.817" transform="translate(12.315 24.623)" fill="#bdbdbd"/>
    </g>
  </g>
</svg>
