<?xml version="1.0" encoding="UTF-8"?>
<svg width="64px" height="64px" viewBox="0 0 64 64" version="1.1" xmlns="http://www.w3.org/2000/svg" xmlns:xlink="http://www.w3.org/1999/xlink">
    <title>Assets / 1 Homepage / homepage_icons_audience</title>
    <g id="Assets-/-1-Homepage-/-homepage_icons_audience" stroke="none" stroke-width="1" fill="none" fill-rule="evenodd">
        <g id="Group-3" transform="translate(3.000000, 5.408451)" fill="#7D0082">
            <path d="M1.09963481,6.0726464e-05 L-0.000121452928,1.09981699 L-0.000121452928,25.5306807 L1.09963481,26.6298297 L6.10835357,26.6298297 L6.10835357,34.6918751 L7.69877966,35.6756438 L25.7904078,26.6298297 L40.8001679,26.6298297 L41.8999242,25.5306807 L41.8999242,1.09981699 L40.8001679,6.0726464e-05 L1.09963481,6.0726464e-05 Z M2.19878381,2.19896599 L39.7010189,2.19896599 L39.7010189,24.4315317 L25.5311058,24.4315317 L25.0392215,24.5475193 L8.30665156,32.9138042 L8.30665156,25.5306807 L7.2068953,24.4315317 L2.19878381,24.4315317 L2.19878381,2.19896599 Z" id="Fill-1"></path>
            <polygon id="Fill-2" points="43.8542233 18.3232996 43.8542233 20.5228122 54.9702025 20.5228122 54.9702025 42.7547706 49.9614838 42.7547706 48.862942 43.8545269 48.862942 51.2370431 32.1303721 42.8707582 31.6384878 42.7547706 17.4685746 42.7547706 17.4685746 34.692118 15.2696694 34.692118 15.2696694 43.8545269 16.3694256 44.9530686 31.3791858 44.9530686 49.4702067 53.9988827 51.06124 53.0157213 51.06124 44.9530686 56.0699588 44.9530686 57.169715 43.8545269 57.169715 19.4230559 56.0699588 18.3232996"></polygon>
        </g>
    </g>
</svg>