<?xml version="1.0" encoding="UTF-8"?>
<svg width="64px" height="64px" viewBox="0 0 64 64" version="1.1" xmlns="http://www.w3.org/2000/svg" xmlns:xlink="http://www.w3.org/1999/xlink">
    <title>Assets / 1 Homepage / homepage_icons_persona</title>
    <defs>
        <polygon id="path-1" points="6.04326706e-05 0.325493847 54.9841696 0.325493847 54.9841696 62.5479543 6.04326706e-05 62.5479543"></polygon>
    </defs>
    <g id="Assets-/-1-Homepage-/-homepage_icons_persona" stroke="none" stroke-width="1" fill="none" fill-rule="evenodd">
        <g id="Group-8" transform="translate(5.000000, 0.000000)">
            <path d="M27.4923884,19.286057 C30.2080759,19.286057 32.4173047,21.4952858 32.4173047,24.2109732 C32.4173047,26.9266607 30.2080759,29.1358895 27.4923884,29.1358895 C24.776701,29.1358895 22.5674722,26.9266607 22.5674722,24.2109732 C22.5674722,21.4952858 24.776701,19.286057 27.4923884,19.286057 M27.4923884,31.2983588 C31.4001364,31.2983588 34.5791668,28.1187212 34.5791668,24.2109732 C34.5791668,20.3032253 31.4001364,17.1235876 27.4923884,17.1235876 C23.5840332,17.1235876 20.4050028,20.3032253 20.4050028,24.2109732 C20.4050028,28.1187212 23.5840332,31.2983588 27.4923884,31.2983588" id="Fill-1" fill="#7D0082"></path>
            <g id="Group-5" transform="translate(0.000000, 0.281771)">
                <mask id="mask-2" fill="white">
                    <use xlink:href="#path-1"></use>
                </mask>
                <g id="Clip-4"></g>
                <path d="M52.5630662,45.9113322 C52.0329242,46.8289091 50.8548308,47.1440795 49.9372539,46.615152 C49.019677,46.0850099 48.7045067,44.9069165 49.2340415,43.9893397 C49.5898985,43.3735733 50.2366354,43.028647 50.9015902,43.028647 C51.2276913,43.028647 51.557436,43.1118423 51.8592465,43.2855199 C52.3037642,43.5423929 52.6219709,43.9571546 52.7549618,44.4532898 C52.8879528,44.9488178 52.8193319,45.4668145 52.5630662,45.9113322 M27.4921455,60.3860922 C26.4324687,60.3860922 25.5701529,59.5237764 25.5701529,58.4640996 C25.5701529,57.4044228 26.4324687,56.542107 27.4921455,56.542107 C28.5518223,56.542107 29.4141381,57.4044228 29.4141381,58.4640996 C29.4141381,59.5237764 28.5518223,60.3860922 27.4921455,60.3860922 M5.04703715,46.615152 C4.60191217,46.8714176 4.08391543,46.9394313 3.58899475,46.8070476 C3.09285954,46.6740566 2.67809779,46.35585 2.42122485,45.9113322 C1.89169008,44.9937554 2.20746769,43.815662 3.12504457,43.2855199 C4.04262144,42.7565924 5.22071484,43.0717628 5.75024961,43.9893397 C6.28039164,44.9075238 5.96461403,46.0850099 5.04703715,46.615152 M2.42122485,16.9624196 C2.77708193,16.346046 3.42442603,16.0017269 4.08938082,16.0017269 C4.41487466,16.0017269 4.74522663,16.0843149 5.04703715,16.2585999 C5.96461403,16.7881346 6.28039164,17.966228 5.75085687,18.8844122 C5.22071484,19.801989 4.04262144,20.1171594 3.12504457,19.5876246 C2.20746769,19.0574826 1.89169008,17.8799964 2.42122485,16.9624196 M27.4921455,2.4876596 C28.5518223,2.4876596 29.4141381,3.34997539 29.4141381,4.40965219 C29.4141381,5.46932898 28.5518223,6.33164477 27.4921455,6.33164477 C26.4324687,6.33164477 25.5701529,5.46932898 25.5701529,4.40965219 C25.5701529,3.34997539 26.4324687,2.4876596 27.4921455,2.4876596 M49.9372539,16.2585999 C50.2335991,16.0879585 50.5621292,16.0005124 50.8949102,16.0005124 C51.061908,16.0005124 51.2301203,16.0223739 51.3959036,16.0667042 C51.8920388,16.1996952 52.3061933,16.5179019 52.5630662,16.9624196 C52.8193319,17.4069373 52.8879528,17.924934 52.7549618,18.420462 C52.6219709,18.9165972 52.3043715,19.3307517 51.8592465,19.5876246 C50.9416696,20.1171594 49.7641835,19.801989 49.2340415,18.8844122 C48.7045067,17.966228 49.019677,16.7881346 49.9372539,16.2585999 M47.3612373,42.9084086 C46.8031611,43.8751739 46.6877808,44.9779665 46.9501191,45.9817749 L30.3596492,55.5601601 C29.6218226,54.8308353 28.6089052,54.3796377 27.4921455,54.3796377 C26.3753859,54.3796377 25.3624684,54.8308353 24.6246419,55.5601601 L8.03477918,45.9817749 C8.29651024,44.9779665 8.18112996,43.8751739 7.62305376,42.9084086 C7.06437029,41.941036 6.16744042,41.2900483 5.16727555,41.0149574 L5.16727555,21.8569726 C6.16744042,21.5818817 7.06497755,20.9321085 7.62305376,19.9653432 C8.18112996,18.9979706 8.29651024,17.8951781 8.03477918,16.8919769 L24.6246419,7.31298443 C25.3624684,8.04230927 26.3753859,8.49350689 27.4921455,8.49350689 C28.6089052,8.49350689 29.6218226,8.04230927 30.3596492,7.31298443 L46.9501191,16.8919769 C46.6877808,17.8951781 46.8031611,18.9979706 47.3618446,19.9653432 C47.9199208,20.9321085 48.8174579,21.582489 49.8176228,21.8569726 L49.8176228,41.0155647 C48.8174579,41.2906556 47.9199208,41.9416433 47.3612373,42.9084086 M54.8433449,43.8933918 C54.5609669,42.8397877 53.8850813,41.9586467 52.9407848,41.4133231 C52.6316871,41.2347872 52.3086223,41.1066544 51.9794849,41.0167792 L51.9794849,21.8600089 C52.3086223,21.7695265 52.6316871,21.6383573 52.9407848,21.4604288 L52.9407848,21.4598215 C54.8907116,20.3339529 55.5611317,17.8314153 54.4352631,15.8808812 C53.3093945,13.9309545 50.8068569,13.2599271 48.8563228,14.386403 C48.5478324,14.5643315 48.2745633,14.7805177 48.0322647,15.0203872 L31.4393657,5.44018028 C31.5255973,5.11043558 31.5760002,4.76611653 31.5760002,4.40965219 C31.5760002,2.15730764 29.7438828,0.325190215 27.4921455,0.325190215 C25.2404082,0.325190215 23.4082908,2.15730764 23.4082908,4.40965219 C23.4082908,4.76611653 23.4586938,5.11043558 23.5449254,5.44018028 L6.95202633,15.0203872 C6.70972774,14.7805177 6.43706592,14.5643315 6.12796821,14.386403 C5.18306443,13.8404721 4.0827009,13.6959431 3.02909675,13.9783211 C1.9754926,14.2606992 1.09435161,14.9365847 0.549027961,15.8808812 C0.00370431431,16.825785 -0.141431935,17.9267558 0.140946123,18.98036 C0.423324181,20.0339641 1.09920973,20.9144979 2.04411351,21.4604288 C2.35260394,21.6383573 2.676276,21.7695265 3.00480617,21.8600089 L3.00480617,41.016172 C2.676276,41.1066544 2.35260394,41.2347872 2.04411351,41.4133231 L2.04411351,41.4133231 C1.09920973,41.9586467 0.423324181,42.8397877 0.140946123,43.8933918 C-0.141431935,44.946996 0.00370431431,46.0479668 0.549027961,46.9922633 C1.09435161,47.9371671 1.9754926,48.6130526 3.02909675,48.8954307 C3.38070298,48.9895567 3.73777459,49.0363161 4.0930244,49.0363161 C4.80048771,49.0363161 5.49884205,48.8504931 6.12796821,48.4873489 C6.43706592,48.3094203 6.70972774,48.0932341 6.9526336,47.8533646 L23.5449254,57.4335715 C23.4586938,57.7633162 23.4082908,58.1076353 23.4082908,58.4640996 C23.4082908,60.7158369 25.2404082,62.5479543 27.4921455,62.5479543 C29.7438828,62.5479543 31.5760002,60.7158369 31.5760002,58.4640996 C31.5760002,58.1076353 31.5255973,57.7639235 31.4393657,57.4335715 L48.0322647,47.8533646 C48.2745633,48.0932341 48.5478324,48.308813 48.8563228,48.4873489 C49.485449,48.8504931 50.1844106,49.0363161 50.8918739,49.0363161 C51.2465165,49.0363161 51.6035881,48.9895567 51.9558016,48.8954307 C53.0087985,48.6130526 53.8899395,47.9371671 54.4352631,46.9922633 C54.9805867,46.0479668 55.125723,44.946996 54.8433449,43.8933918" id="Fill-3" fill="#7D0082" mask="url(#mask-2)"></path>
            </g>
            <path d="M38.423152,45.6525768 L27.7474396,45.6525768 L16.6891505,40.1234322 C17.1251665,38.7904863 19.0459446,35.8027443 27.4923884,35.8027443 C38.1316649,35.8027443 38.4164721,40.5436594 38.423152,40.7276605 L38.423152,45.6525768 Z M27.4923884,33.6402749 C14.5479354,33.6402749 14.3991555,40.4386026 14.3991555,40.7276605 L14.9967039,41.6944259 L27.0090058,47.7008804 L27.4923884,47.8150462 L39.504083,47.8150462 L40.5856213,46.7335078 L40.5856213,40.7276605 C40.5856213,40.4386026 40.4362342,33.6402749 27.4923884,33.6402749 L27.4923884,33.6402749 Z" id="Fill-6" fill="#7D0082"></path>
        </g>
    </g>
</svg>