<?xml version="1.0" encoding="UTF-8"?>
<svg width="64px" height="64px" viewBox="0 0 64 64" version="1.1" xmlns="http://www.w3.org/2000/svg" xmlns:xlink="http://www.w3.org/1999/xlink">
    <title>Assets / 1 Homepage / homepage_icons_strategy</title>
    <g id="Assets-/-1-Homepage-/-homepage_icons_strategy" stroke="none" stroke-width="1" fill="none" fill-rule="evenodd">
        <g id="Group-9" transform="translate(7.000000, 7.000000)" fill="#7D0082">
            <path d="M1.08105251,6.0726464e-05 L0.000121452928,1.08099179 L0.000121452928,37.1178973 L0.597669859,38.0846627 L24.6216663,50.0963572 L25.105049,50.210523 L49.1296527,50.210523 L50.2105837,49.1295919 L50.2105837,1.08099179 L49.1296527,6.0726464e-05 L1.08105251,6.0726464e-05 Z M2.16198357,36.4499062 L2.16198357,2.16192285 L48.0481143,2.16192285 L48.0481143,48.0486609 L25.3607074,48.0486609 L14.1736782,42.4557535 L14.1736782,38.1988284 L37.1173508,38.1988284 L38.1982819,37.1178973 L38.1982819,24.5305159 L42.723618,29.0552447 L44.2521031,27.5261523 L37.881897,21.1559463 L36.3528046,21.1559463 L29.9825985,27.5261523 L31.5110836,29.0552447 L36.0358125,24.5305159 L36.0358125,36.036359 L13.0927471,36.036359 L12.011816,37.1178973 L12.011816,41.3742152 L2.16198357,36.4499062 Z" id="Fill-1"></path>
            <g id="Group-8" transform="translate(9.108970, 8.916527)">
                <path d="M28.0083205,2.25471288 C29.0679973,2.25471288 29.9303131,3.11702867 29.9303131,4.17670547 C29.9303131,5.23638227 29.0679973,6.09869806 28.0083205,6.09869806 C26.9486437,6.09869806 26.0863279,5.23638227 26.0863279,4.17670547 C26.0863279,3.11702867 26.9486437,2.25471288 28.0083205,2.25471288 M28.0083205,8.26116744 C30.2600578,8.26116744 32.0927824,6.42905002 32.0927824,4.17670547 C32.0927824,1.92496818 30.2600578,0.0922434989 28.0083205,0.0922434989 C25.7565832,0.0922434989 23.9238585,1.92496818 23.9238585,4.17670547 C23.9238585,6.42905002 25.7565832,8.26116744 28.0083205,8.26116744" id="Fill-2"></path>
                <polygon id="Fill-4" points="1.74527858 7.94156406 3.98122698 5.70561566 6.07386093 7.79824961 7.6029533 6.26976451 5.51031935 4.17652329 7.74626775 1.94057489 6.21717539 0.412089785 3.98122698 2.64803819 1.88859303 0.554796976 0.359500667 2.08388934 2.45274188 4.17652329 0.216186212 6.4124717"></polygon>
                <polygon id="Fill-6" points="13.757459 7.94156406 15.9934074 5.70561566 18.0860413 7.79824961 19.6151337 6.26976451 17.5224997 4.17652329 19.7584482 1.94057489 18.2293558 0.412089785 15.9934074 2.64803819 13.9007734 0.554796976 12.3716811 2.08388934 14.4649223 4.17652329 12.2283666 6.4124717"></polygon>
            </g>
        </g>
    </g>
</svg>