<svg xmlns="http://www.w3.org/2000/svg" xmlns:xlink="http://www.w3.org/1999/xlink" width="200" height="60" viewBox="0 0 200 60">
  <defs>
    <clipPath id="clip-Linkedin_200x60">
      <rect width="200" height="60"/>
    </clipPath>
  </defs>
  <g id="Linkedin_200x60" clip-path="url(#clip-Linkedin_200x60)">
    <g id="layer1" transform="translate(-190.887 -389.207)">
      <g id="g3019" transform="translate(202.387 395.742)">
        <path id="path14" d="M243.806-98.907a3.423,3.423,0,0,1,3.446-3.383h39.723a3.423,3.423,0,0,1,3.446,3.383v40.162a3.423,3.423,0,0,1-3.446,3.383H247.252a3.423,3.423,0,0,1-3.446-3.383V-98.907Z" transform="translate(-113.421 102.291)" fill="#bdbdbd"/>
        <path id="path16" d="M31.787-57.671H51.211v-6.391H38.8V-88.434H31.787Z" transform="translate(-31.787 96.956)" fill="#bdbdbd" fill-rule="evenodd"/>
        <path id="path18" d="M74.7-58.024V-79.2H67.681v21.177ZM71.19-82.083a3.7,3.7,0,0,0,4.01-3.634,3.645,3.645,0,0,0-3.947-3.634,3.7,3.7,0,0,0-4.01,3.634,3.645,3.645,0,0,0,3.947,3.634Z" transform="translate(-45.439 97.309)" fill="#bdbdbd" fill-rule="evenodd"/>
        <path id="path20" d="M84.665-51.983h7.017V-63.825a4.585,4.585,0,0,1,.251-1.692,3.889,3.889,0,0,1,3.634-2.569c2.569,0,3.571,1.942,3.571,4.762v11.341h7.017V-64.138c0-6.516-3.446-9.524-8.082-9.524a7.008,7.008,0,0,0-6.391,3.571h.063v-3.07h-7.08c.125,2,0,21.177,0,21.177Z" transform="translate(-52.147 91.267)" fill="#bdbdbd" fill-rule="evenodd"/>
        <path id="path22" d="M131.315-88.434H124.3v30.764h7.017v-6.892l1.754-2.193,5.514,9.085h8.646l-9.273-13.158,8.145-8.96h-8.458s-5.764,8.02-6.265,8.96l-.063-17.606Z" transform="translate(-67.407 96.956)" fill="#bdbdbd" fill-rule="evenodd"/>
        <path id="path24" d="M178.916-61.406a20.864,20.864,0,0,0,.251-2.757c0-5.451-2.757-11.027-10.087-11.027-7.832,0-11.466,6.2-11.466,11.779,0,6.955,4.386,11.278,12.092,11.278a22.1,22.1,0,0,0,8.208-1.378l-.94-4.636a19.1,19.1,0,0,1-6.265.94c-3.258,0-6.14-1.378-6.391-4.2Zm-14.6-4.762c.188-1.817,1.378-4.448,4.386-4.448,3.2,0,3.947,2.819,3.947,4.448Z" transform="translate(-80.234 91.856)" fill="#bdbdbd" fill-rule="evenodd"/>
        <path id="path26" d="M210.761-88.434v10.651H210.7c-1-1.5-3.133-2.506-5.952-2.506-5.388,0-10.213,4.323-10.15,11.716,0,6.892,4.323,11.341,9.649,11.341a7.893,7.893,0,0,0,7.08-3.7h.125l.251,3.2h6.266c-.063-1.5-.188-4.073-.188-6.579V-88.434Zm0,20.927a12.206,12.206,0,0,1-.125,1.566,4.174,4.174,0,0,1-4.135,3.321c-2.945,0-4.824-2.318-4.824-6.078,0-3.446,1.629-6.265,4.887-6.265a4.2,4.2,0,0,1,4.135,3.321,8.823,8.823,0,0,1,.063,1.253v2.882Z" transform="translate(-94.474 96.956)" fill="#bdbdbd" fill-rule="evenodd"/>
        <path id="path28" d="M262.163-58.063V-79.241h-7.017v21.177Zm-3.509-24.122a3.7,3.7,0,0,0,4.01-3.634,3.645,3.645,0,0,0-3.947-3.634,3.7,3.7,0,0,0-4.01,3.634,3.645,3.645,0,0,0,3.947,3.634Z" transform="translate(-117.619 97.348)" fill="#fff" fill-rule="evenodd"/>
        <path id="path30" d="M273.148-51.983h7.017V-63.825a4.586,4.586,0,0,1,.251-1.692,3.89,3.89,0,0,1,3.634-2.569c2.569,0,3.571,1.942,3.571,4.762v11.341h7.017V-64.138c0-6.516-3.446-9.524-8.082-9.524a7.008,7.008,0,0,0-6.391,3.571h.063v-3.07h-7.017c0,1.942-.063,21.177-.063,21.177Z" transform="translate(-124.719 91.267)" fill="#fff" fill-rule="evenodd"/>
      </g>
    </g>
  </g>
</svg>
