<svg xmlns="http://www.w3.org/2000/svg" xmlns:xlink="http://www.w3.org/1999/xlink" width="200" height="60" viewBox="0 0 200 60">
  <defs>
    <clipPath id="clip-Nuvi_200x60">
      <rect width="200" height="60"/>
    </clipPath>
  </defs>
  <g id="Nuvi_200x60" clip-path="url(#clip-Nuvi_200x60)">
    <g id="Nuvi-Hi-Res" transform="translate(21.684 8.641)">
      <g id="Large-_1680-_-HOME" data-name="Large-@1680-|-HOME">
        <g id="Group">
          <path id="Path" d="M71.486,32.128c.6-.734,4.04-5.379,23.153-32.128h8.418C80.427,32.075,77.19,36.418,76.734,36.871a13.081,13.081,0,0,1-9.344,4.067h-.26C58.24,40.938,55.008,34.453,55,30.1V0h7.193V30.106c.05,1.453.763,3.89,4.936,3.89h.26A5.775,5.775,0,0,0,71.486,32.128Z" transform="translate(42.895)" fill="#bdbdbd" fill-rule="evenodd"/>
          <path id="Path-2" data-name="Path" d="M40.863,0h7.194V30.092c-.006,4.361-3.239,10.846-12.146,10.846h-.26A13.062,13.062,0,0,1,26.3,36.873c-.347-.352-.922-.928-18.377-25.3l-.726-1.013V39.715H0V0H8.38C21.922,18.936,30.367,30.642,31.587,32.164A5.758,5.758,0,0,0,35.652,34h.26c4.179,0,4.9-2.476,4.952-3.962Z" fill="#bdbdbd" fill-rule="evenodd"/>
          <path id="Path-3" data-name="Path" d="M62.913,21.745V0h7.025V21.745c0,11.563-9.178,20.973-20.462,20.973A20.754,20.754,0,0,1,29,21.745V0h7.022V21.745a13.449,13.449,0,1,0,26.891,0Z" transform="translate(22.617)" fill="#bdbdbd" fill-rule="evenodd"/>
          <path id="Path-4" data-name="Path" d="M84,42.718h7.12V0H84Z" transform="translate(65.513)" fill="#bdbdbd" fill-rule="evenodd"/>
        </g>
      </g>
    </g>
  </g>
</svg>
