<svg xmlns="http://www.w3.org/2000/svg" xmlns:xlink="http://www.w3.org/1999/xlink" width="81" height="81" viewBox="0 0 81 81">
  <defs>
    <clipPath id="clip-path">
      <circle id="Ellipse_22" data-name="Ellipse 22" cx="40.5" cy="40.5" r="40.5" transform="translate(121 1673)" fill="#a725ad"/>
    </clipPath>
  </defs>
  <g id="Icon_-_Nashville_Office" data-name="Icon - Nashville Office" transform="translate(-121 -1673)">
    <circle id="Ellipse_23" data-name="Ellipse 23" cx="40.5" cy="40.5" r="40.5" transform="translate(121 1673)" fill="#a725ad"/>
    <g id="Mask_Group_9" data-name="Mask Group 9" clip-path="url(#clip-path)">
      <path id="noun_nashville_1916140" d="M37.6,71.1v-.5h-.5v.5Zm3.2-7.8h.5v-.5h-.5Zm-7,0v-.5h-.5v.5Zm3.8-8.8h.5V54h-.5Zm-7,0V54h-.5v.5ZM33,29v-.5h-.5V29Zm.8-3.7v-.5h-.5v.5Zm.9-3.1h.5v-.5h-.5ZM33.8,18h.5v-.5h-.5Zm-2.6,0v-.5h-.5V18Zm-1.1,4.2v-.5h-.5v.5ZM29,25.3v-.5h-.5v.5ZM29,94h-.5v.5H29Zm2.2-68.7h.5v-.5h-.5Zm3.7,14.1v-.5h-.5v.5ZM40.8,37l-.1-.5-.4.1V37ZM50,34.2l.1-.5h-.2ZM62.4,71.1h.5v-.5h-.5Zm-3.2-7.8v-.5h-.5v.5Zm7,0h.5v-.5h-.5Zm-3.8-8.8V54h-.5v.5Zm7,0h.5V54h-.5ZM67,29h.5v-.5H67Zm-.8-3.7h.5v-.5h-.5Zm-.9-3.1v-.5h-.5v.5Zm.9-4.2v-.5h-.5V18Zm2.6,0h.5v-.5h-.5Zm1.1,4.2h.5v-.5h-.5ZM71,25.3h.5v-.5H71ZM71,94v.5h.5V94ZM68.8,25.3v-.5h-.5v.5ZM65.1,39.4h.5v-.5h-.5ZM59.2,37h.5v-.4l-.4-.1Zm4.3-11.7v-.5H63v.5Zm-27,0H37v-.5h-.5ZM44.6,94V71.1h-1V94Zm-.5-23.4H40.9v1h3.2Zm-3.3,0H37.6v1h3.2Zm-3.7.5V94h1V71.1Zm.5,23.4h6.5v-1H37.6Zm3.7-23.4V63.3h-1v7.8Zm-8-7.8V94h1V63.3Zm.5,31.2h3.8v-1H33.8Zm7-31.7H37.6v1h3.2Zm-3.2,0H33.8v1h3.8Zm.5.5V54.5h-1v8.8Zm-8-8.8V94h1V54.5Zm.5,40h3.2v-1H30.6v1Zm2.9-40V29h-1V54.5Zm-.5-25h.9v-1H33Zm1.3-.5V25.4h-1V29Zm2.2-2.1H63.4v-1H36.5Zm-2.7,2.6h2.7v-1H33.8Zm2.7,0H63.4v-1H36.5ZM36,26.4V29h1V26.4Zm-2.2-.6h.8v-1h-.8Zm1.4-.5V22.2h-1v3.1Zm-.5-3.6h-.8v1h.8Zm-.4.5V18h-1v4.2Zm-.5-4.7H32.5v1h1.3Zm-1.3,0H31.2v1h1.3Zm.5.5V5H32V18Zm-2.3,0v4.2h1V18Zm.5,3.7H30.1v1h1.1Zm-1.6.5v3.1h1V22.2Zm.5,2.6H29v1h1.1Zm-1.6.5V94h1V25.3ZM29,94.5h1.6v-1H29Zm2.2-69.7H30.1v1h1.1Zm-.5.5V54.4h1V25.3ZM31.2,54h-.5v1h.5Zm6.4,0H34.9v1h2.7Zm-2.7,0h-2v1h2Zm.5.5V39.4h-1V54.5Zm-.9-14.9,9.2,15.1.9-.5L35.4,39.1Zm9.1,14.9V71.1h1V54.5ZM34.9,39.9h5.9v-1H34.9Zm5.9,0H59.1v-1H40.8Zm.5-.5V37h-1v2.4ZM41,37.5l9.2-2.8-.3-1-9.2,2.8Zm3.1,57h3.2v-1H44.1Zm3.7-.5V62.6h-1V94Zm-.5.5H50v-1H47.3Zm3.2-.5V58.6h-1V94ZM33,54H31.2v1H33ZM56.4,94V71.1h-1V94Zm-.5-22.4h3.2v-1H55.9Zm3.3,0h3.2v-1H59.2Zm2.7-.5V94h1V71.1Zm.5,22.4H55.9v1h6.5ZM59.7,71.1V63.3h-1v7.8Zm6-7.8V94h1V63.3Zm.5,30.2H62.4v1h3.8Zm-7-29.7h3.2v-1H59.2Zm3.2,0h3.8v-1H62.4v1Zm.5-.5V54.5h-1v8.8Zm6-8.8V94h1V54.5Zm.5,39H66.2v1h3.2Zm-1.9-39V29h-1V54.5Zm-.5-26h-.9v1H67Zm-.3.5V25.4h-1V29Zm-.5-.5H63.5v1h2.7ZM63,26.4V29h1V26.4Zm3.2-1.6h-.8v1h.8Zm-.4.5V22.2h-1v3.1Zm-.5-2.6h.8v-1h-.8Zm1.4-.5V18h-1v4.2Zm-.5-3.7h1.3v-1H66.2Zm1.3,0h1.3v-1H67.5ZM68,18V6H67V18Zm.3,0v4.2h1V18Zm.5,4.7h1.1v-1H68.8Zm.6-.5v3.1h1V22.2Zm.5,3.6H71v-1H69.9Zm.6-.5V94h1V25.3ZM71,93.5H69.4v1H71ZM68.8,25.8h1.1v-1H68.8Zm-.5-.5V54.4h1V25.3ZM68.8,55h.5V54h-.5Zm-6.4,0h2.7V54H62.4v1Zm2.7,0h2V54h-2Zm.5-.5V39.4h-1V54.5Zm-1-15.4L55.4,54.2l.9.5,9.2-15.1ZM55.9,54H44.1v1H55.9V54Zm-.5.5V71.1h1V54.5Zm9.7-15.6H59.2v1h5.9Zm-5.4.5V37h-1v2.4Zm-.4-2.9-9.2-2.8-.3,1L59,37.5Zm-3.4,57H52.7v1h3.2Zm-2.7.5V62.6h-1V94Zm-.5-.5H50v1h2.7ZM67,55h1.8V54H67Zm-.8-32.3h2.7v-1H66.2Zm-35,0h2.7v-1H31.2Zm5.9,42.8v3h1v-3Zm24.8,0v3h1v-3Zm-3.2,8v3h1v-3Zm-18.4,0v3h1v-3Zm0,5.5v3h1V79Zm0,5v3h1V84Zm18.4-5v3h1V79Zm0,5v3h1V84ZM33.3,57v3h1V57Zm32.4,0v3h1V57ZM64,26.4v-1H63v1Zm-.5-.6h1.9v-1H63.5ZM37,26.4v-1H36v1Zm-.5-1.6H34.6v1h1.9Zm4.3,17.7H59.1v-1H40.8Zm5.2,10h8v-1H46Z" transform="translate(111.5 1668)" fill="#fff"/>
    </g>
  </g>
</svg>
