<svg xmlns="http://www.w3.org/2000/svg" xmlns:xlink="http://www.w3.org/1999/xlink" width="200" height="60" viewBox="0 0 200 60">
  <defs>
    <clipPath id="clip-Pinterest_200x60">
      <rect width="200" height="60"/>
    </clipPath>
  </defs>
  <g id="Pinterest_200x60" clip-path="url(#clip-Pinterest_200x60)">
    <g id="pinterestRGB-000000" transform="translate(70 0)">
      <circle id="Ellipse_1" data-name="Ellipse 1" cx="30" cy="30" r="30" transform="translate(0 0)" fill="#fff"/>
      <path id="Path_1" data-name="Path 1" d="M29.922,0a29.931,29.931,0,0,0-10.91,57.8,28.807,28.807,0,0,1,.1-8.595c.542-2.34,3.5-14.875,3.5-14.875a10.9,10.9,0,0,1-.887-4.433c0-4.162,2.413-7.265,5.418-7.265,2.561,0,3.793,1.921,3.793,4.211,0,2.561-1.625,6.4-2.487,9.974a4.352,4.352,0,0,0,4.433,5.418c5.319,0,9.407-5.615,9.407-13.693,0-7.166-5.147-12.166-12.51-12.166-8.521,0-13.52,6.378-13.52,12.978a11.68,11.68,0,0,0,2.216,6.822.891.891,0,0,1,.2.862c-.222.936-.739,2.98-.837,3.4-.123.542-.443.665-1.01.394-3.743-1.749-6.083-7.191-6.083-11.6,0-9.432,6.846-18.1,19.775-18.1,10.368,0,18.446,7.388,18.446,17.288,0,10.319-6.5,18.618-15.515,18.618-3.029,0-5.886-1.576-6.846-3.448l-1.872,7.117a32.6,32.6,0,0,1-3.719,7.856A29.948,29.948,0,1,0,29.922,0Z" fill="#bdbdbd"/>
    </g>
  </g>
</svg>
