<svg xmlns="http://www.w3.org/2000/svg" xmlns:xlink="http://www.w3.org/1999/xlink" width="200" height="60" viewBox="0 0 200 60">
  <defs>
    <clipPath id="clip-PowerBI_200x60_Black_4">
      <rect width="200" height="60"/>
    </clipPath>
  </defs>
  <g id="PowerBI_200x60_Black_4" data-name="PowerBI_200x60_Black – 4" clip-path="url(#clip-PowerBI_200x60_Black_4)">
    <g id="Layer_2" data-name="Layer 2" transform="translate(12.896 9.529)">
      <g id="Layer_1" data-name="Layer 1" transform="translate(0 0)">
        <path id="Path_109" data-name="Path 109" d="M2.611,33.5h0A2.606,2.606,0,0,1,0,30.895V24.007A2.606,2.606,0,0,1,2.611,21.4h0a2.6,2.6,0,0,1,2.606,2.606v6.887A2.6,2.6,0,0,1,2.611,33.5Zm10.314-.248V21.32a2.611,2.611,0,0,0-2.611-2.611h0A2.611,2.611,0,0,0,7.7,21.32V33.252a2.606,2.606,0,0,0,2.611,2.606h0a2.606,2.606,0,0,0,2.611-2.606Zm7.7,2.635V18.848a2.611,2.611,0,0,0-2.611-2.62h0a2.606,2.606,0,0,0-2.606,2.611V35.878a2.606,2.606,0,0,0,2.606,2.611h0a2.611,2.611,0,0,0,2.611-2.6Zm7.7,2.444V16.123a2.606,2.606,0,0,0-2.606-2.611h0a2.611,2.611,0,0,0-2.611,2.611V38.331a2.611,2.611,0,0,0,2.611,2.611h0a2.606,2.606,0,0,0,2.606-2.611ZM39.786,10.276,4.964.11A2.907,2.907,0,0,0,4.191,0,2.754,2.754,0,0,0,1.432,2.754V19.177H3.508V2.754a.687.687,0,0,1,.683-.692.721.721,0,0,1,.2.029l34.8,10.166a.683.683,0,0,1,.477.659V34.842a.687.687,0,0,1-.683.692.721.721,0,0,1-.2-.029l-7.923-2.334v2.148l7.36,2.153a2.754,2.754,0,0,0,3.522-2.63V12.915a2.744,2.744,0,0,0-1.981-2.639Zm22.17-.387A32.79,32.79,0,0,1,67.4,9.465c2.8,0,4.859.654,6.162,1.828a5.894,5.894,0,0,1,1.909,4.6,6.47,6.47,0,0,1-1.694,4.692A9.1,9.1,0,0,1,67.063,23a9.77,9.77,0,0,1-2.281-.2v8.8h-2.84Zm2.84,10.6a9.517,9.517,0,0,0,2.343.224c3.427,0,5.513-1.661,5.513-4.692,0-2.9-2.057-4.3-5.183-4.3a11.932,11.932,0,0,0-2.673.229Zm27.869,3.093c0,5.837-4.043,8.381-7.856,8.381-4.267,0-7.56-3.131-7.56-8.114,0-5.279,3.456-8.376,7.823-8.376,4.51,0,7.575,3.288,7.575,8.109Zm-12.514.167c0,3.456,1.986,6.062,4.773,6.062,2.735,0,4.773-2.577,4.773-6.128,0-2.673-1.336-6.062-4.73-6.062s-4.835,3.126-4.835,6.128ZM97.2,15.822l2.076,8.042c.477,1.761.878,3.389,1.174,5.021h.1c.358-1.6.883-3.293,1.4-4.988l2.577-8.076h2.386l2.444,7.89c.587,1.909,1.045,3.551,1.4,5.15h.1a48.008,48.008,0,0,1,1.208-5.117l2.248-7.923h2.835L112.076,31.6H109.47l-2.415-7.532a52.976,52.976,0,0,1-1.4-5.183h-.067a45.819,45.819,0,0,1-1.432,5.217l-2.544,7.5H99L94.23,15.822Zm24.122,8.41c.067,3.88,2.544,5.474,5.412,5.474a10.419,10.419,0,0,0,4.367-.811l.477,2.052a12.715,12.715,0,0,1-5.25.955c-4.859,0-7.761-3.193-7.761-7.956s2.806-8.505,7.4-8.505c5.15,0,6.52,4.529,6.52,7.431a10.5,10.5,0,0,1-.1,1.336Zm8.41-2.052c.033-1.828-.749-4.663-3.976-4.663-2.9,0-4.171,2.673-4.4,4.663Zm6.324-1.432c0-1.857-.033-3.456-.129-4.921h2.487l.1,3.1h.134a4.731,4.731,0,0,1,4.367-3.456,3.274,3.274,0,0,1,.816.1V18.27a4.248,4.248,0,0,0-.978-.1c-2.024,0-3.456,1.532-3.847,3.68a7.908,7.908,0,0,0-.134,1.336V31.6h-2.84Zm17.66-10.82A27.324,27.324,0,0,1,158.9,9.45c2.835,0,4.663.477,6.028,1.6a4.606,4.606,0,0,1,1.828,3.876,5.217,5.217,0,0,1-3.718,4.825v.067a5.663,5.663,0,0,1,4.534,5.508,5.909,5.909,0,0,1-1.861,4.4c-1.532,1.4-4.009,2.057-7.594,2.057a33.333,33.333,0,0,1-4.4-.263Zm2.835,8.992h2.577c3,0,4.773-1.565,4.773-3.685,0-2.577-1.957-3.584-4.825-3.584a12.014,12.014,0,0,0-2.511.2Zm0,10.529a15.5,15.5,0,0,0,2.386.129c2.931,0,5.637-1.074,5.637-4.272,0-3-2.573-4.234-5.67-4.234h-2.353Zm17.66-19.822V31.582h-2.835V9.627Z" transform="translate(0 0)" fill="#bdbdbd"/>
      </g>
    </g>
  </g>
</svg>
