<svg version="1" xmlns="http://www.w3.org/2000/svg" width="682.667" height="682.667" viewBox="0 0 512.000000 512.000000"><path d="M229.8 41.4c-.1.2-4.3.6-9.3 1-11 .9-17.9 1.6-27.7 3.2-28.6 4.4-69.7 15.7-69.9 19.2-.2 2-.5 4.4-1.3 9.2-.5 3.1-2 14.7-3.1 23.4-.2 1.7-.7 4.9-1 7.1-.7 4.6-.7 4.6-3.5 26-1.1 8.8-2.3 16.6-2.5 17.2-.7 2 1.7 1.5 8.6-1.6 14.4-6.5 47.3-16.5 61.4-18.6 1.1-.1 5.2-.8 9-1.5 3.9-.6 8.6-1.3 10.5-1.6 1.9-.2 4.9-.6 6.5-.8 13.8-2.1 53.1-2.8 66.5-1.4 11.4 1.3 25.3 4.6 33.5 8.1 13.4 5.6 25.7 16.4 31 27.2 5.6 11.5 6.6 17.2 7.2 41.5l.5 22.5-54.3.1c-54.8.1-76.7.8-88.4 2.8-2.2.4-5.3.8-7 1-1.6.3-5 .9-7.5 1.5-2.5.5-5.8 1.2-7.5 1.5-9.8 1.8-26.2 7.6-37.3 13.3-24.6 12.7-40.8 29.8-50.4 53-1.4 3.6-1.3 3.2-4.2 13.8-3.2 12-3.7 15.8-4.1 30.5-.3 14 .6 22.7 3.7 34.5 2 7.8 9.5 25.7 11 26.3.5.2.8.9.8 1.6 0 2.6 12.3 17.9 21 26.1 20.9 19.8 52.8 34.6 86 39.9 1.9.4 4.6.8 6 1.1 10.4 2 56 2.8 71.5 1.3 11.6-1.2 25.5-3.6 34-5.8 4.4-1.2 9-2.3 10.2-2.6 3.8-.7 16.5-5.5 21.6-8 2.6-1.4 4.7-2.1 4.7-1.7 0 .5.4.3.8-.2.4-.6 3.2-2.3 6.2-3.9 13.5-7.1 30.3-21.6 38.6-33.1 14.3-20 22-41.6 24.9-70 .7-6.9.7-172.5 0-177-.3-1.7-.7-5-1-7.5-.7-7.4-4.7-23.6-7.4-30.5-12.2-30.4-31.5-51.5-60.6-66.3-6.8-3.4-24.6-10.6-29.5-11.8-.8-.2-4.2-1.1-7.5-1.9-6.5-1.7-20.2-4.5-25-5.1-1.6-.2-5.2-.7-8-1-2.7-.3-6.1-.8-7.5-1-2.9-.5-49.7-1.4-50.2-1zM345.5 315c0 25.8-.2 28.5-3 36.5-6.8 19.6-27.7 35.1-54.5 40.4-3 .6-6.6 1.4-8 1.6-6 1.2-12.3 1.7-24.5 1.7-16.5.1-28.6-1.3-40.5-4.7-3-.8-6.6-1.8-7.9-2.1-4.3-.9-18.7-8.2-23.5-11.8-6.8-5.3-10.2-9.3-13.6-16.2-2.5-5.1-4.4-13.6-4.4-19.4.1-10.1 4.5-22.5 10.5-29.4 6.4-7.4 21.2-15 33.4-17 1.7-.3 4.1-.8 5.5-1.1 4.6-.9 10.4-1.6 19.5-2.2 5-.3 9.1-.6 9.2-.7.1 0 23-.1 51-.1h50.8V315z"/></svg>