<svg xmlns="http://www.w3.org/2000/svg" xmlns:xlink="http://www.w3.org/1999/xlink" width="200" height="60" viewBox="0 0 200 60">
  <defs>
    <clipPath id="clip-Snapchat_200x60">
      <rect width="200" height="60"/>
    </clipPath>
  </defs>
  <g id="Snapchat_200x60" clip-path="url(#clip-Snapchat_200x60)">
    <g id="Snapchat-Logo.wine" transform="translate(70)">
      <path id="Path_2" data-name="Path 2" d="M50.44,0A9.561,9.561,0,0,1,60,9.561V50.44A9.561,9.561,0,0,1,50.44,60H9.561A9.562,9.562,0,0,1,0,50.44V9.561A9.561,9.561,0,0,1,9.561,0Z" transform="translate(0)" fill="#bdbdbd"/>
      <path id="Path_3" data-name="Path 3" d="M53.281,43.439c-.177-.585-1.023-1-1.023-1-.08-.042-.152-.08-.21-.11A16.325,16.325,0,0,1,48.334,39.9a12.588,12.588,0,0,1-2.151-2.45A9.248,9.248,0,0,1,45,35a.832.832,0,0,1,0-.606,1,1,0,0,1,.295-.333c.476-.337,1.242-.834,1.714-1.137.408-.265.758-.493.964-.636a4.211,4.211,0,0,0,1.381-1.444,2.489,2.489,0,0,0,.118-2.092,2.428,2.428,0,0,0-2.4-1.532,3.793,3.793,0,0,0-.775.084,12.083,12.083,0,0,0-1.789.577.054.054,0,0,1-.076-.055A36.643,36.643,0,0,0,44.4,23.18a11.45,11.45,0,0,0-.93-3.823,10.5,10.5,0,0,0-4.29-4.6,12.8,12.8,0,0,0-12.256,0,10.483,10.483,0,0,0-4.294,4.6,11.325,11.325,0,0,0-.93,3.823,35.869,35.869,0,0,0-.025,4.648.057.057,0,0,1-.08.055,12.083,12.083,0,0,0-1.789-.577,3.731,3.731,0,0,0-.775-.084,2.436,2.436,0,0,0-2.4,1.532,2.489,2.489,0,0,0,.118,2.092A4.251,4.251,0,0,0,18.13,32.29c.2.143.556.371.964.636.459.3,1.2.783,1.684,1.116a1,1,0,0,1,.324.354.862.862,0,0,1-.008.632,9.278,9.278,0,0,1-1.179,2.421,12.468,12.468,0,0,1-2.151,2.45,16.33,16.33,0,0,1-3.713,2.433c-.067.034-.147.072-.232.122,0,0-.842.429-1,.985a1.938,1.938,0,0,0,1.027,2A11.022,11.022,0,0,0,16.9,46.676c.206.055.392.105.56.156a1.123,1.123,0,0,1,.484.282,1.513,1.513,0,0,1,.21.669,1.977,1.977,0,0,0,.8,1.339,4.247,4.247,0,0,0,2.282.472,12.381,12.381,0,0,1,3.629.552,9.309,9.309,0,0,1,1.928,1,10.906,10.906,0,0,0,12.529-.008,9.413,9.413,0,0,1,1.907-.989,12.38,12.38,0,0,1,3.629-.551,4.208,4.208,0,0,0,2.282-.472,2.047,2.047,0,0,0,.813-1.427,1.268,1.268,0,0,1,.194-.577,1.107,1.107,0,0,1,.467-.274c.173-.055.366-.105.581-.164a10.828,10.828,0,0,0,2.787-1.065c1.356-.77,1.448-1.713,1.305-2.181Z" transform="translate(-3.051 -3.153)" fill="#fff"/>
      <path id="Path_4" data-name="Path 4" d="M54.053,42.587a3,3,0,0,0-1.52-1.613A3.688,3.688,0,0,0,52.2,40.8c-.194-.1-.392-.2-.589-.3a12.853,12.853,0,0,1-4.7-4.033,9.449,9.449,0,0,1-.808-1.431.684.684,0,0,1-.021-.56.889.889,0,0,1,.261-.269q.473-.313.951-.619c.434-.282.779-.505,1-.657a5.413,5.413,0,0,0,1.777-1.89,3.759,3.759,0,0,0,.181-3.128,3.7,3.7,0,0,0-3.579-2.349,4.856,4.856,0,0,0-1.04.114l-.269.063a30.218,30.218,0,0,0-.1-3.065,11.169,11.169,0,0,0-2.9-7.031,11.551,11.551,0,0,0-2.951-2.379,13.384,13.384,0,0,0-6.762-1.735,13.414,13.414,0,0,0-6.753,1.73,11.448,11.448,0,0,0-2.955,2.379,11.169,11.169,0,0,0-2.9,7.031c-.088,1.027-.109,2.08-.1,3.065l-.269-.063a4.885,4.885,0,0,0-1.04-.114,3.7,3.7,0,0,0-3.579,2.349,3.759,3.759,0,0,0,.181,3.128,5.452,5.452,0,0,0,1.777,1.89c.223.156.564.379,1,.657.236.152.577.375.914.6a1.016,1.016,0,0,1,.295.295.688.688,0,0,1-.034.585,9.288,9.288,0,0,1-.8,1.4,12.8,12.8,0,0,1-4.568,3.962c-1.04.552-2.118.918-2.572,2.156a2.728,2.728,0,0,0,.754,2.9,4.4,4.4,0,0,0,1.1.834A11.956,11.956,0,0,0,15.8,47.391a1.719,1.719,0,0,1,.543.244c.32.278.274.7.7,1.314a3.045,3.045,0,0,0,.8.813,5.245,5.245,0,0,0,2.951.695,11.276,11.276,0,0,1,3.28.488,8.441,8.441,0,0,1,1.663.876,12.164,12.164,0,0,0,13.851-.008,8.734,8.734,0,0,1,1.642-.867,11.276,11.276,0,0,1,3.28-.488,5.254,5.254,0,0,0,2.951-.695,3.1,3.1,0,0,0,.909-.989c.3-.518.3-.884.585-1.133a1.708,1.708,0,0,1,.514-.232,11.97,11.97,0,0,0,2.732-1.09,4.288,4.288,0,0,0,1.158-.888l.013-.013a2.714,2.714,0,0,0,.682-2.829Zm-3.019,1.621c-1.844,1.019-3.069.909-4.021,1.52-.808.522-.333,1.646-.918,2.05-.724.5-2.859-.034-5.616.876-2.273.754-3.726,2.913-7.822,2.913s-5.515-2.151-7.822-2.913c-2.758-.909-4.9-.375-5.616-.876-.585-.4-.109-1.528-.918-2.05-.952-.615-2.177-.505-4.021-1.52-1.175-.648-.509-1.048-.118-1.238,6.677-3.229,7.738-8.222,7.789-8.6a1.182,1.182,0,0,0-.37-1.259c-.476-.442-2.593-1.751-3.179-2.16-.973-.678-1.4-1.356-1.082-2.189a1.305,1.305,0,0,1,1.326-.791,2.5,2.5,0,0,1,.53.059c1.065.232,2.1.766,2.7.909a.9.9,0,0,0,.219.03c.32,0,.429-.16.408-.526a38.918,38.918,0,0,1-.051-5.566,8.836,8.836,0,0,1,2.316-5.654,10.335,10.335,0,0,1,7.894-3.284,10.308,10.308,0,0,1,7.894,3.284A8.815,8.815,0,0,1,42.87,22.88a37.7,37.7,0,0,1-.051,5.566c-.025.383.093.526.408.526a.869.869,0,0,0,.219-.03c.6-.143,1.634-.678,2.7-.909a2.5,2.5,0,0,1,.53-.059A1.311,1.311,0,0,1,48,28.765c.316.834-.114,1.512-1.082,2.189-.585.408-2.7,1.718-3.179,2.16a1.179,1.179,0,0,0-.371,1.259c.046.375,1.111,5.368,7.789,8.6.379.189,1.048.589-.126,1.238Z" transform="translate(-2.653 -2.757)"/>
    </g>
  </g>
</svg>
