<svg xmlns="http://www.w3.org/2000/svg" xmlns:xlink="http://www.w3.org/1999/xlink" width="200" height="60" viewBox="0 0 200 60">
  <defs>
    <clipPath id="clip-Sparktoro_200x60">
      <rect width="200" height="60"/>
    </clipPath>
  </defs>
  <g id="Sparktoro_200x60" clip-path="url(#clip-Sparktoro_200x60)">
    <g id="sparktoro-logo" transform="translate(-0.194 9.401)">
      <path id="Path_5" data-name="Path 5" d="M10.2,32.855,9.034,31.1h0l-.634.877h0c.244.146.439.244.634.341h0c.341.146.731.341,1.17.536Z" transform="translate(-4.206 -15.838)" fill="#bdbdbd"/>
      <path id="Path_6" data-name="Path 6" d="M194.3,10.092l.195.195V9.8Z" transform="translate(-99.49 -4.921)" fill="none"/>
      <path id="Path_7" data-name="Path 7" d="M23.738,22.662A16.47,16.47,0,0,1,19.4,21.2L30.806,38.26a7.682,7.682,0,0,0,3.12-6.434C33.975,27.878,32.268,24.807,23.738,22.662Z" transform="translate(-9.844 -10.764)" fill="#bdbdbd" stroke="#f8a320" stroke-miterlimit="10" stroke-width="0.02"/>
      <path id="Path_8" data-name="Path 8" d="M9.7,31Z" transform="translate(-4.872 -15.787)" fill="#bdbdbd"/>
      <path id="Path_9" data-name="Path 9" d="M30.74,4.988a1.961,1.961,0,0,0-1.121-1.414A13.9,13.9,0,0,0,26.4,2.6h0L22.6,7.767h.439a3.929,3.929,0,0,1,2.876.926,1.39,1.39,0,0,0,.682.39h.049a3.107,3.107,0,0,0,.341.1h.39a2.228,2.228,0,0,0,1.462-.731l1.511-1.8A1.844,1.844,0,0,0,30.74,4.988ZM25.183,8.206Zm-.341-.146Zm-.39-.1Z" transform="translate(-11.484 -1.23)" fill="#bdbdbd"/>
      <path id="Path_10" data-name="Path 10" d="M14.428,20.482A2,2,0,0,1,13.7,19.8h0l-4,5.508h0l1.17,1.755h0a.693.693,0,0,0,.292.1l.292.146c.195.1.439.146.634.244a.9.9,0,0,0,.341.1c.244.1.487.146.731.244.1.049.195.049.292.1a5.142,5.142,0,0,0,.926.244c.049,0,.1.049.195.049.195.049.341.1.536.146a14.65,14.65,0,0,1,4.436,1.511,2.2,2.2,0,0,1,1.17,2.047,2.141,2.141,0,0,1-.877,1.852,4.61,4.61,0,0,1-2.73.634,11.983,11.983,0,0,1-1.365-.1h0l3.7,5.459h0a12.749,12.749,0,0,0,6.385-2.242h0Z" transform="translate(-4.872 -10.046)" fill="#bdbdbd"/>
      <path id="Path_11" data-name="Path 11" d="M54.6,52.7h0v9.8h0l3.656-4.874h0Z" transform="translate(-27.886 -26.909)" fill="#bdbdbd"/>
      <path id="Path_12" data-name="Path 12" d="M71.561,31.764h0a2.691,2.691,0,0,1-2.388,1.17,2.543,2.543,0,0,1-1.852-.682h0c-.78-.78-1.17-2.34-1.17-4.826a11.945,11.945,0,0,1,.439-3.7h0l-.1-.195h0L62.3,16.8h0V27.426h0v11.8h0l2.925,4h0L66.3,42a.866.866,0,0,0,.195-.487V38a.761.761,0,0,1,.39-.634.752.752,0,0,1,.78.049,6.805,6.805,0,0,0,3.753.926,8.948,8.948,0,0,0,3.9-.877h0Z" transform="translate(-31.833 -8.508)" fill="#bdbdbd"/>
      <path id="Path_13" data-name="Path 13" d="M79.65,21.157c0-.049-.049-.1-.049-.146-.1-.244-.195-.439-.292-.682l-.146-.292c-.1-.195-.244-.39-.341-.585a1.02,1.02,0,0,0-.195-.292,4.066,4.066,0,0,1-.39-.585c-.049-.1-.146-.146-.195-.244-.146-.195-.341-.341-.487-.536l-.1-.1h0a7.643,7.643,0,0,0-3.363-1.852h0a7.45,7.45,0,0,0-3.363-.1h-.049c-.195.049-.439.1-.634.146h-.1a1.746,1.746,0,0,0-.536.195c-.049,0-.049,0-.1.049-.146.049-.341.146-.487.195-.049,0-.049.049-.1.049-.146.1-.292.146-.439.244-.049,0-.049.049-.1.049a4.655,4.655,0,0,0-.78.585.692.692,0,0,1-1.17-.439.7.7,0,0,0-.731-.634H62.2v.049h0l4.192,6.727h0l.1.146h0a1.731,1.731,0,0,1,.195-.439h0A2.655,2.655,0,0,1,68.1,21.352h0c.049,0,.049,0,.1-.049.1-.049.244-.049.39-.1a.293.293,0,0,0,.195-.049c.146,0,.244-.049.39-.049h.1a2.505,2.505,0,0,1,2,.78,4.887,4.887,0,0,1,1.072,2.632h0a11.5,11.5,0,0,1,.1,1.9c0,2.193-.292,3.7-.975,4.631h0l3.558,5.7h0a9.464,9.464,0,0,0,2.145-1.511,9.06,9.06,0,0,0,1.706-2.291,14.315,14.315,0,0,0,1.511-6.873A12.444,12.444,0,0,0,79.65,21.157Zm-8.725-5.411h0Zm-.634.1a.179.179,0,0,0-.146.049A.241.241,0,0,0,70.292,15.844Zm-.634.195c-.049,0-.1.049-.146.049C69.512,16.039,69.609,16.039,69.658,16.039Zm-.634.195a.151.151,0,0,1-.1.049A.151.151,0,0,0,69.024,16.234Zm-.585.292c-.049,0-.049.049-.1.049A.17.17,0,0,0,68.439,16.526Z" transform="translate(-31.782 -7.893)" fill="#bdbdbd"/>
      <path id="Path_14" data-name="Path 14" d="M62.1,62.8h0v7.36L65.025,66.8h0Z" transform="translate(-31.73 -32.086)" fill="#bdbdbd"/>
      <path id="Path_15" data-name="Path 15" d="M10.921,46.115h0a5.264,5.264,0,0,1-1.852-.731A3.334,3.334,0,0,1,7.9,43.97,2.037,2.037,0,0,0,6.046,42.8H2.2A2.008,2.008,0,0,0,.343,45.578,9.119,9.119,0,0,0,2.1,48.259a9.647,9.647,0,0,0,2.73,2h0a15.908,15.908,0,0,0,7.165,1.462,23.817,23.817,0,0,0,2.632-.146h0l-3.7-5.459Z" transform="translate(0 -21.835)" fill="#bdbdbd"/>
      <path id="Path_16" data-name="Path 16" d="M11.862,2.1h-.244a4.46,4.46,0,0,0-.829.049A1.829,1.829,0,0,0,10.3,2.2a5.371,5.371,0,0,0-.877.1c-.146,0-.244.049-.39.049-.292.049-.585.1-.829.146a.9.9,0,0,0-.341.1c-.292.049-.536.146-.78.195-.049,0-.1.049-.146.049h0a6.945,6.945,0,0,0-1.852.682h0a2.3,2.3,0,0,0-.585.341h0A8.41,8.41,0,0,0,1.724,6.633,8.154,8.154,0,0,0,.7,10.24h0v.146h0v.244a7.631,7.631,0,0,0,.731,3.51A7.457,7.457,0,0,0,4.4,17.064h0l.634-.877,4-5.508h0A1.587,1.587,0,0,1,8.84,10h0V9.7c0-1.316.877-2.047,2.535-2.193h0l3.8-5.167h0A23.525,23.525,0,0,0,11.862,2.1ZM4.7,3.709c.049,0,.1-.049.146-.049C4.795,3.66,4.746,3.709,4.7,3.709Z" transform="translate(-0.259 -0.974)" fill="#bdbdbd"/>
      <path id="Path_17" data-name="Path 17" d="M55.331,16.7a1.022,1.022,0,0,0-.536.195.733.733,0,0,0-.195.536c0,1.316.049,3.022.049,4.679h0v1.852h0v8.287h0V34.2L58.3,39.122h0L54.649,44v4.728a.733.733,0,0,0,.487.682.53.53,0,0,0,.244.049.783.783,0,0,0,.536-.244l2.388-2.73h0v-7.36h0V27.375h0V16.8h0v-.049H55.331Z" transform="translate(-27.886 -8.457)" fill="#bdbdbd"/>
      <path id="Path_18" data-name="Path 18" d="M141.04,20.1h0l-2.34,2.1h0l4.436,5.9h0V25.706A7.107,7.107,0,0,0,141.04,20.1Z" transform="translate(-70.992 -10.2)" fill="#bdbdbd"/>
      <path id="Path_19" data-name="Path 19" d="M141.04,18.665A6.892,6.892,0,0,0,138.7,17.3h0v3.51l2.34-2.145Z" transform="translate(-70.992 -8.765)" fill="#bdbdbd"/>
      <path id="Path_20" data-name="Path 20" d="M112.019,17.5h0a6.739,6.739,0,0,0-3.071,2.291c-.049.049-.049.1-.1.1l-.292.439a.369.369,0,0,0-.1.195,2.612,2.612,0,0,0-.244.536c-.049.049-.049.1-.1.195a2.748,2.748,0,0,0-.195.585c0,.1-.049.146-.049.244-.049.195-.1.39-.146.634a.179.179,0,0,1-.049.146.55.55,0,0,0,.146.536.677.677,0,0,0,.487.244h5.947a.628.628,0,0,0,.634-.536,3.661,3.661,0,0,1,.341-.877h0Z" transform="translate(-55.084 -8.867)" fill="#bdbdbd"/>
      <g id="Group_1" data-name="Group 1" transform="translate(63.126 7.755)">
        <path id="Path_21" data-name="Path 21" d="M143.331,47.324c-.1-1.267-.195-3.656-.195-5.557V36.6L138.7,42.5h0v5.508h4A.651.651,0,0,0,143.331,47.324Z" transform="translate(-134.118 -26.412)" fill="#bdbdbd"/>
        <path id="Path_22" data-name="Path 22" d="M133.931,16.48h0a14.984,14.984,0,0,0-4.289-.78H129.3l4.631,4.241h0Z" transform="translate(-129.3 -15.7)" fill="#bdbdbd"/>
      </g>
      <path id="Path_23" data-name="Path 23" d="M130.322,25.888h0l-4.436-5.947h0L121.255,15.7h-.731a14.624,14.624,0,0,0-5.411.877h0l3.315,4.679h0a2.163,2.163,0,0,1,1.95-.78,2.275,2.275,0,0,1,1.9.682,2.406,2.406,0,0,1,.487,1.657v.536a.645.645,0,0,1-.634.634h-1.755l1.365,1.9h0l-1.462,2.1h0c.244,0,.536-.049.78-.049h1.072a.645.645,0,0,1,.634.634,5.633,5.633,0,0,1-.536,2.876,2.632,2.632,0,0,1-2.535,1.17,3.788,3.788,0,0,1-.78-.1h-.049c-.1-.049-.195-.049-.244-.1a.048.048,0,0,1-.049-.049c-.049-.049-.146-.049-.195-.1l-.049-.049a.673.673,0,0,0-.195-.146.048.048,0,0,1-.049-.049l-.146-.146h0a1.71,1.71,0,0,1-.244-.39h0l-4,5.654h0a8.922,8.922,0,0,0,3.315.634,9.827,9.827,0,0,0,3.12-.439,5.043,5.043,0,0,0,1.95-1.072.824.824,0,0,1,.487-.146h0a.621.621,0,0,1,.536.536v.1a.675.675,0,0,0,.634.536h2.047V31.786h0Zm-4.387,5.9-4.192-5.9h0l4.192-5.9v11.8Zm-4.582.585Zm.292-.195Z" transform="translate(-58.178 -7.945)" fill="#bdbdbd"/>
      <g id="Group_2" data-name="Group 2" transform="translate(81.015 7.853)">
        <path id="Path_24" data-name="Path 24" d="M175.9,16.144a.9.9,0,0,0-.585-.244h-.244a6.786,6.786,0,0,0-3.8,1.657.929.929,0,0,1-.487.244h-.244c-.1,0-.195-.049-.292-.049a.937.937,0,0,1-.634-.877v-.1L166,19.995l4.143,5.8h0a3.471,3.471,0,0,1,1.755-2.242,6.783,6.783,0,0,1,3.315-.634,1.03,1.03,0,0,0,1.024-1.024V16.924A1.06,1.06,0,0,0,175.9,16.144Z" transform="translate(-166 -15.9)" fill="#bdbdbd"/>
        <path id="Path_25" data-name="Path 25" d="M166,48.7v5.508h2.73a.921.921,0,0,0,.877-.536h0L166,48.7Z" transform="translate(-166 -32.712)" fill="#bdbdbd"/>
      </g>
      <path id="Path_26" data-name="Path 26" d="M158.982,16.649a1.165,1.165,0,0,0-.682.244h0l3.753,3.412h0V16.6h-3.071Z" transform="translate(-81.038 -8.406)" fill="#bdbdbd"/>
      <path id="Path_27" data-name="Path 27" d="M161.695,20.712h0L157.941,17.3h0a.97.97,0,0,0-.341.78c0,1.462.049,3.168.049,5.021v3.217h0v.829l4.046,5.459h0V20.712Z" transform="translate(-80.68 -8.765)" fill="#bdbdbd"/>
      <g id="Group_3" data-name="Group 3" transform="translate(81.015 0.2)">
        <path id="Path_28" data-name="Path 28" d="M166,24.3V36.194l4-5.459.146-.585h0Z" transform="translate(-166 -12.553)" fill="#bdbdbd"/>
        <path id="Path_29" data-name="Path 29" d="M207.872,14.141a.953.953,0,0,1-.78-.195.853.853,0,0,1-.341-.682v-7.7h0V1.077A.874.874,0,0,0,205.873.2H202.9V9.023h0v11.8h0v8.53h2.973a.874.874,0,0,0,.877-.877v-2.34L202.9,20.868h0l4.338-5.9h0l.634-.829Z" transform="translate(-184.913 -0.2)" fill="#bdbdbd"/>
      </g>
      <g id="Group_4" data-name="Group 4" transform="translate(81.015 0.2)">
        <path id="Path_30" data-name="Path 30" d="M170,37.5l-4,5.459h0l3.656,5.021h0a.94.94,0,0,0,.146-.487v-7.7A10.563,10.563,0,0,1,170,37.5Z" transform="translate(-166 -19.318)" fill="#bdbdbd"/>
        <path id="Path_31" data-name="Path 31" d="M218.013,44.828,207.338,30.4h0L203,36.3h0l3.851,5.264h0V39.174a.923.923,0,0,1,.39-.731l.926-.926a.9.9,0,0,1,.78-.244.83.83,0,0,1,.634.487c.292.682.731,1.56,1.17,2.486.78,1.609,1.56,3.266,1.95,4.095a.915.915,0,0,0,.78.536l4.533-.049Z" transform="translate(-184.965 -15.679)" fill="#bdbdbd"/>
        <path id="Path_32" data-name="Path 32" d="M198.7.249h0L195.577.2a.874.874,0,0,0-.877.877v3.8h0l4-4.631Z" transform="translate(-180.71 -0.2)" fill="#bdbdbd"/>
      </g>
      <g id="Group_5" data-name="Group 5" transform="translate(95.004 9.461)">
        <path id="Path_33" data-name="Path 33" d="M225.5,37.82c-.682-1.267-1.8-3.266-2.876-5.167-1.365-2.437-2.778-5.021-3.412-6.191a1.006,1.006,0,0,1,.1-.975l4.095-4.874a.82.82,0,0,0,.146-.926.868.868,0,0,0-.78-.487h-6.434a.926.926,0,0,0-.731.39c-.975,1.365-1.95,2.827-2.681,3.948a.867.867,0,0,1-.536.39h0l-.585.78h0l10.724,14.38h2.242a.937.937,0,0,0,.78-.439A.989.989,0,0,0,225.5,37.82Z" transform="translate(-203.465 -19.2)" fill="#bdbdbd"/>
        <path id="Path_34" data-name="Path 34" d="M198.7,36.862l-4-5.362h0V42.224h0l4-5.362Z" transform="translate(-194.7 -25.504)" fill="#bdbdbd"/>
      </g>
      <g id="Group_6" data-name="Group 6" transform="translate(76.969 0.227)">
        <path id="Path_35" data-name="Path 35" d="M169.558,16.7H166v3.7l3.607-3.217h0c0-.195-.049-.341-.049-.487Z" transform="translate(-161.954 -8.684)" fill="#bdbdbd"/>
        <path id="Path_36" data-name="Path 36" d="M161.746,42.959h0L157.7,37.5h0v9.944a1.027,1.027,0,0,0,.244.634h0a1.018,1.018,0,0,0,.78.39h3.022V42.959Z" transform="translate(-157.7 -19.346)" fill="#bdbdbd"/>
        <path id="Path_37" data-name="Path 37" d="M198.7.277h0l-4,4.679h0v.487h0v9.066h0v1.024h0l4,5.362h0V9.1h0Z" transform="translate(-176.665 -0.256)" fill="#bdbdbd"/>
        <path id="Path_38" data-name="Path 38" d="M198.7,42.5l-4,5.362h0v2.291a.874.874,0,0,0,.877.877h3.12V42.5Z" transform="translate(-176.665 -21.908)" fill="#bdbdbd"/>
      </g>
      <path id="Path_39" data-name="Path 39" d="M249.3,37.2h0V47.339a.992.992,0,0,0,.292.731h0l3.9-5.216h0Z" transform="translate(-127.681 -18.965)" fill="#bdbdbd"/>
      <path id="Path_40" data-name="Path 40" d="M249.9,53.916h0a.992.992,0,0,0,.731.292H253.8V48.7Z" transform="translate(-127.989 -24.859)" fill="#bdbdbd"/>
      <g id="Group_7" data-name="Group 7" transform="translate(125.811 1.662)">
        <path id="Path_41" data-name="Path 41" d="M257.9,3.2h0V13.583h0v11.8h0l3.948-5.411h0v-.926h0V10.219a.439.439,0,0,1,.049-.244h0a.7.7,0,0,1,.341-.487h0L257.9,3.2Z" transform="translate(-257.9 -3.2)" fill="#bdbdbd"/>
        <path id="Path_42" data-name="Path 42" d="M274.283,3.5h0L267.8,9.4h5.947a1,1,0,0,0,1.024-1.024v-4A.966.966,0,0,0,274.283,3.5Z" transform="translate(-262.974 -3.354)" fill="#bdbdbd"/>
      </g>
      <path id="Path_43" data-name="Path 43" d="M241.412,3.2H230.005a1.018,1.018,0,0,0-.78.39l-3.266,4a1.067,1.067,0,0,0-.146,1.072,1.092,1.092,0,0,0,.926.585H236.2a.877.877,0,0,1,.731.341h0a.962.962,0,0,1,.292.682v9.018h0v.536h0l4.192,5.606h0V13.583h0V3.2Z" transform="translate(-115.601 -1.538)" fill="#bdbdbd"/>
      <g id="Group_8" data-name="Group 8" transform="translate(125.811 1.614)">
        <path id="Path_44" data-name="Path 44" d="M269.209,3.246a.983.983,0,0,0-.536-.146H257.9l4.289,6.288h0a.929.929,0,0,1,.487-.244h0l6.532-5.9Z" transform="translate(-257.9 -3.1)" fill="#bdbdbd"/>
        <path id="Path_45" data-name="Path 45" d="M261.848,37.6,257.9,43.011h0v5.508h2.925a1.041,1.041,0,0,0,.829-.39h0a.98.98,0,0,0,.195-.634V37.6Z" transform="translate(-257.9 -20.783)" fill="#bdbdbd"/>
      </g>
      <path id="Path_46" data-name="Path 46" d="M291.76,15.7h0a13.934,13.934,0,0,0-4.192.78,9.017,9.017,0,0,0-3.168,1.9h0l3.51,3.217h0l3.851-5.9Z" transform="translate(-145.672 -7.945)" fill="#bdbdbd"/>
      <path id="Path_47" data-name="Path 47" d="M308.348,18.381a10.389,10.389,0,0,0-3.266-1.95,11.651,11.651,0,0,0-4.192-.731h-.39v5.313h0a2.7,2.7,0,0,1,2.73,2.047h0l5.118-4.679Z" transform="translate(-153.924 -7.945)" fill="#bdbdbd"/>
      <path id="Path_48" data-name="Path 48" d="M338.7,24.7v.049h0Z" transform="translate(-173.504 -12.558)" fill="#bdbdbd"/>
      <path id="Path_49" data-name="Path 49" d="M344.441,16.044a.9.9,0,0,0-.585-.244h-.1a7.171,7.171,0,0,0-2.388.634,5.656,5.656,0,0,0-1.755,1.219.91.91,0,0,1-.926.195.732.732,0,0,1-.536-.731v-.049a.867.867,0,0,0-.536-.731h0l-3.071,3.851h0v0h0l-2.778-3.851h-.39a1.027,1.027,0,0,0-.634.244.927.927,0,0,0-.244.634c.049,1.511.049,3.266.049,5.167v2.876h0l4-4.972v11.6h0l3.948-5.021h0c.292-2,1.17-3.12,2.827-3.558h0l3.51-4.436h0v-2.1A1.305,1.305,0,0,0,344.441,16.044Z" transform="translate(-169.301 -7.996)" fill="#bdbdbd"/>
      <g id="Group_9" data-name="Group 9" transform="translate(142.238 7.755)">
        <path id="Path_50" data-name="Path 50" d="M295.451,15.7h0L291.6,21.6h0l1.609,1.462h0a2.729,2.729,0,0,1,2.73-2.1h.049V15.7h-.536Z" transform="translate(-291.6 -15.7)" fill="#bdbdbd"/>
        <path id="Path_51" data-name="Path 51" d="M352.6,26.284h0a9.423,9.423,0,0,1,2.583-.292h.049a1.027,1.027,0,0,0,.634-.244.927.927,0,0,0,.244-.634V21.8Z" transform="translate(-322.866 -18.827)" fill="#bdbdbd"/>
        <path id="Path_52" data-name="Path 52" d="M334.548,43.421,330.6,48.441h0a.915.915,0,0,0,.78.536h3.168V43.421h0l3.607,5.264h0a.9.9,0,0,0,.244-.585V40.3a11.583,11.583,0,0,1,.146-1.9h0l-4,5.021Z" transform="translate(-311.59 -27.335)" fill="#bdbdbd"/>
      </g>
      <g id="Group_10" data-name="Group 10" transform="translate(135.316 8.292)">
        <path id="Path_53" data-name="Path 53" d="M286.808,34.6a4.7,4.7,0,0,1-1.121-2.145h0a12.887,12.887,0,0,1-.292-2.925,10.985,10.985,0,0,1,.487-3.7h0L280.763,21.1h0a9.681,9.681,0,0,0-2.535,3.656,12.449,12.449,0,0,0-.829,4.777v.195a3.217,3.217,0,0,0,.049.682,1.35,1.35,0,0,0,.049.439,2.851,2.851,0,0,0,.1.634c0,.146.049.292.049.439.049.195.1.439.146.634.049.146.049.244.1.39a4.52,4.52,0,0,0,.195.634c0,.049.049.146.049.195s.049.1.049.146c.1.195.146.439.244.634a2.376,2.376,0,0,1,.146.341l.292.585a1.02,1.02,0,0,0,.195.292,5.138,5.138,0,0,0,.341.536c.049.1.146.195.195.292a4.4,4.4,0,0,0,.439.487c.049.049.049.1.1.146s.1.049.1.1a5.562,5.562,0,0,0,.536.536c.1.049.146.146.244.195l.585.439c.1.049.146.1.244.146a7.217,7.217,0,0,0,.634.39l.292.146c.195.1.439.195.682.292.049,0,.1.049.146.049a13.441,13.441,0,0,0,4.777.926h.39V35.333h0A2.61,2.61,0,0,1,286.808,34.6Z" transform="translate(-277.4 -19.004)" fill="#bdbdbd"/>
        <path id="Path_54" data-name="Path 54" d="M338.9,16.849a.618.618,0,0,0-.292-.049H333l2.778,3.851h0V20.7h0l3.12-3.851Z" transform="translate(-305.898 -16.8)" fill="#bdbdbd"/>
      </g>
      <g id="Group_11" data-name="Group 11" transform="translate(146.576 10.436)">
        <path id="Path_55" data-name="Path 55" d="M309.664,36.554c.146-.195.244-.39.39-.585l.146-.292c.1-.195.244-.39.341-.634l.146-.292c.1-.195.2-.439.292-.682a.692.692,0,0,0,.1-.292,3.587,3.587,0,0,0,.2-.682c.049-.1.049-.244.1-.341l.146-.731c0-.146.049-.244.049-.39.049-.244.049-.487.1-.731a.95.95,0,0,1,.049-.39c0-.244.049-.487.049-.78v-.195a12.374,12.374,0,0,0-.877-4.728,9.506,9.506,0,0,0-2.535-3.607h0l-5.118,4.679h0a12.628,12.628,0,0,1,.487,3.8,12.889,12.889,0,0,1-.292,2.925h0a4.249,4.249,0,0,1-1.072,2.1,2.624,2.624,0,0,1-1.852.682h0v5.264h.292a14.262,14.262,0,0,0,4.679-.877c.049,0,.1-.049.146-.1.244-.1.439-.195.634-.292l.292-.146c.195-.1.439-.244.634-.341a.487.487,0,0,0,.244-.195l.585-.439c.1-.049.146-.146.244-.195.2-.146.341-.341.536-.487.049-.049.1-.049.1-.1.049-.049.049-.1.1-.146a5.177,5.177,0,0,0,.439-.536Z" transform="translate(-300.5 -21.2)" fill="#bdbdbd"/>
        <path id="Path_56" data-name="Path 56" d="M334.446,24.8h0L330.4,29.821h0V41.129a.9.9,0,0,0,.1.341h0l3.948-5.021h0V24.8Z" transform="translate(-315.826 -23.045)" fill="#bdbdbd"/>
      </g>
      <g id="Group_12" data-name="Group 12" transform="translate(165.196 10.144)">
        <path id="Path_57" data-name="Path 57" d="M338.7,48.7h0v5.508h2.973a.786.786,0,0,0,.634-.292h0L338.7,48.7Z" transform="translate(-338.7 -35.003)" fill="#bdbdbd"/>
        <path id="Path_58" data-name="Path 58" d="M381.555,38.977l-3.8-4.923h0a2.548,2.548,0,0,1-2.145,1.024,2.724,2.724,0,0,1-2.437-1.365,8.7,8.7,0,0,1-.877-4.387,13.068,13.068,0,0,1,.195-2.535h0L368.053,20.6h0a9.465,9.465,0,0,0-2.827,3.753,12.554,12.554,0,0,0-.926,4.972v.195a3,3,0,0,0,.049.682,1.35,1.35,0,0,0,.049.439,3.29,3.29,0,0,0,.1.682c0,.146.049.292.049.439.049.195.1.439.146.634.049.146.049.244.1.39.049.195.146.439.195.634,0,.049.049.1.049.195,0,.049.049.1.049.146.1.244.195.439.292.682l.146.292a3.636,3.636,0,0,0,.341.585,1.02,1.02,0,0,0,.195.292,4.069,4.069,0,0,0,.39.585,1.065,1.065,0,0,0,.195.244c.146.195.292.341.439.536.049.049.049.1.1.146s.1.049.1.1l.536.536c.1.049.146.146.244.195l.585.439c.1.049.146.1.244.146.2.146.439.244.634.39l.292.146c.195.1.439.195.682.292.049,0,.1.049.146.049a13.036,13.036,0,0,0,4.923.877,12.491,12.491,0,0,0,6-1.316Z" transform="translate(-351.822 -20.6)" fill="#bdbdbd"/>
      </g>
      <path id="Path_59" data-name="Path 59" d="M391.8,36.975h0l3.851,4.923h0a8.87,8.87,0,0,0,3.9-3.9,12.34,12.34,0,0,0,1.365-5.849,13.026,13.026,0,0,0-.341-3.12,12.152,12.152,0,0,0-1.024-2.73h0l-7.409,10.09h0S392.044,36.585,391.8,36.975Z" transform="translate(-200.721 -13.378)" fill="#bdbdbd"/>
      <path id="Path_60" data-name="Path 60" d="M385.6,17.114a12.131,12.131,0,0,0-5.9-1.414,13.828,13.828,0,0,0-4.387.634A9.387,9.387,0,0,0,372,18.088h0l4.484,6.142h0a4.55,4.55,0,0,1,1.121-2.535,2.572,2.572,0,0,1,1.9-.731,3.182,3.182,0,0,1,1.414.292,2.772,2.772,0,0,1,1.024.975,9.458,9.458,0,0,1,.829,4.533,9.508,9.508,0,0,1-.731,4.192h0l7.409-10.09h0A10.16,10.16,0,0,0,385.6,17.114Z" transform="translate(-190.572 -7.945)" fill="#bdbdbd"/>
      <path id="Path_61" data-name="Path 61" d="M117.694,30.347l-1.365-1.9h-.195c-3.315,0-5.9.585-7.6,1.706a6.36,6.36,0,0,0-1.657,1.56h0a3.635,3.635,0,0,0-.341.585l-.049.049c-.1.195-.195.439-.292.682v.049a6.661,6.661,0,0,0-.39,2.486,6.829,6.829,0,0,0,1.024,3.7,6.289,6.289,0,0,0,2.925,2.437h0l4-5.654h0a2.892,2.892,0,0,1-.244-1.121,2.243,2.243,0,0,1,.634-1.706,3.523,3.523,0,0,1,2.193-.78h0l1.365-2.1,4.192,5.9h0V24.4ZM113.55,34c-.049.1-.049.195-.1.292C113.5,34.2,113.5,34.1,113.55,34Z" transform="translate(-54.129 -12.404)" fill="#bdbdbd"/>
    </g>
  </g>
</svg>
