<svg xmlns="http://www.w3.org/2000/svg" xmlns:xlink="http://www.w3.org/1999/xlink" width="200" height="60" viewBox="0 0 200 60">
  <defs>
    <clipPath id="clip-Sproutsocial_200x60">
      <rect width="200" height="60"/>
    </clipPath>
  </defs>
  <g id="Sproutsocial_200x60" clip-path="url(#clip-Sproutsocial_200x60)">
    <g id="Sprout-Social-Logo-Horizontal-Lockup" transform="translate(8.744 11.281)">
      <path id="Path_62" data-name="Path 62" d="M78.14,10.51a9.252,9.252,0,0,1-3.042.7,3.075,3.075,0,0,0-2.106.7h0a5.083,5.083,0,0,0-1.4,1.989v-.351a1.872,1.872,0,1,0-3.744,0v9.828a1.872,1.872,0,1,0,3.744,0V18.7a3.661,3.661,0,0,1,2.925-3.51c.117,0,.234,0,.234-.117h0A4.241,4.241,0,0,0,78.14,10.51Zm95.7,14.624h1.872V7h-1.872Zm-12.4-10.413a8.189,8.189,0,0,1,3.861-.936c2.34,0,3.744,1.17,3.744,3.51v.468a12.189,12.189,0,0,0-3.861-.585c-3.159,0-5.382,1.4-5.382,4.212,0,2.691,2.34,3.978,4.68,3.978a5.409,5.409,0,0,0,4.563-2.223v1.989h1.872V17.3c0-3.393-1.989-5.148-5.382-5.148a10.923,10.923,0,0,0-4.563,1.053Zm.234,6.552c0-1.638,1.287-2.691,3.744-2.691a10.916,10.916,0,0,1,3.744.585v1.287c0,1.989-1.872,3.51-4.212,3.51C163.078,23.847,161.674,22.911,161.674,21.273Zm-6.2-11.816h2.106V7.351h-2.106Zm.117,15.677h1.872V12.265h-1.872Zm-7.137.234a6.614,6.614,0,0,0,5.148-2.457l-1.17-1.17a5.327,5.327,0,0,1-3.861,1.872,4.779,4.779,0,0,1-4.68-5.031,4.761,4.761,0,0,1,4.563-5.031,4.872,4.872,0,0,1,3.861,1.989l1.287-1.287a6.464,6.464,0,0,0-5.031-2.34,6.566,6.566,0,0,0-6.552,6.669A6.429,6.429,0,0,0,148.454,25.368Zm-14.624,0a6.669,6.669,0,1,0-6.552-6.669A6.592,6.592,0,0,0,133.83,25.368Zm0-11.7a4.779,4.779,0,0,1,4.68,5.031,4.61,4.61,0,0,1-4.68,4.914,4.779,4.779,0,0,1-4.68-5.031A4.823,4.823,0,0,1,133.83,13.669Zm-12.518,11.7c2.574,0,4.563-1.4,4.563-3.861h0c0-2.34-2.106-3.042-4.095-3.627-1.638-.468-3.276-.936-3.276-2.223h0c0-1.053.936-1.872,2.457-1.872a6.874,6.874,0,0,1,3.744,1.287l.819-1.4a9.081,9.081,0,0,0-4.563-1.4c-2.457,0-4.329,1.521-4.329,3.627h0c0,2.34,2.223,3.042,4.212,3.627,1.638.468,3.159.936,3.159,2.223h0c0,1.287-1.053,1.989-2.574,1.989a7.457,7.457,0,0,1-4.446-1.638l-.936,1.4A8.5,8.5,0,0,0,121.311,25.368ZM106.57,21.39c0,3.042,1.521,3.978,3.861,3.978a6.119,6.119,0,0,0,2.106-.351,1.58,1.58,0,0,0,.936-1.4,1.549,1.549,0,0,0-1.521-1.521h-.468c-.819,0-1.17-.468-1.17-1.287V15.073h1.638a1.638,1.638,0,0,0,0-3.276h-1.638V10.159a1.872,1.872,0,1,0-3.744,0V21.39ZM104.7,23.379V13.552a1.872,1.872,0,1,0-3.744,0v5.733c0,1.755-.936,2.691-2.34,2.691s-2.223-.936-2.223-2.691V13.552a1.872,1.872,0,1,0-3.744,0v6.9c0,3.042,1.638,4.914,4.446,4.914a4.76,4.76,0,0,0,3.861-2.106v.117a1.872,1.872,0,1,0,3.744,0Zm-27.845-4.8a6.9,6.9,0,0,0,7.137,6.9,6.969,6.969,0,0,0,7.137-6.9h0a6.9,6.9,0,0,0-7.137-6.9,6.828,6.828,0,0,0-7.137,6.9Zm10.53,0a3.382,3.382,0,0,1-3.393,3.627,3.543,3.543,0,0,1-3.51-3.627h0a3.456,3.456,0,1,1,6.9,0ZM52.4,13.552V27.357a1.872,1.872,0,1,0,3.744,0V23.379a5.144,5.144,0,0,0,4.095,1.989c3.159,0,5.967-2.457,5.967-6.9h0c0-4.446-2.925-6.9-5.967-6.9a4.911,4.911,0,0,0-4.095,2.106v-.117a1.872,1.872,0,1,0-3.744,0Zm10.062,4.914a3.189,3.189,0,1,1-6.318,0h0c0-2.223,1.4-3.627,3.159-3.627,1.638-.117,3.159,1.4,3.159,3.627ZM40.7,23.847A1.587,1.587,0,0,1,40,22.56a1.475,1.475,0,0,1,1.521-1.521,1.254,1.254,0,0,1,.7.234,6.563,6.563,0,0,0,3.51,1.17c1.053,0,1.521-.351,1.521-.936h0c0-.819-1.287-1.053-2.691-1.521-1.872-.585-3.978-1.4-3.978-3.978h0c0-2.691,2.106-4.212,4.8-4.212a8.537,8.537,0,0,1,4.095,1.053,1.52,1.52,0,0,1,.936,1.4,1.549,1.549,0,0,1-1.521,1.521,1.484,1.484,0,0,1-.7-.117,8.075,8.075,0,0,0-2.808-.819c-.936,0-1.4.351-1.4.936h0c0,.7,1.287,1.053,2.691,1.638,1.872.585,3.978,1.521,3.978,3.978h0c0,2.925-2.223,4.329-5.031,4.329A15.079,15.079,0,0,1,40.7,23.847Z" transform="translate(6.798 1.19)" fill="#bdbdbd"/>
      <path id="Path_63" data-name="Path 63" d="M12.986,0A13.008,13.008,0,0,0,0,12.869V36.5a.834.834,0,0,0,.819.936A.894.894,0,0,0,1.4,37.2l7.02-7.02h8.892A12.932,12.932,0,0,0,30.3,17.315h0V0Z" fill="#bdbdbd"/>
      <path id="Path_64" data-name="Path 64" d="M28.549,0H11V17.549Z" transform="translate(1.869)" fill="#bdbdbd"/>
      <g id="Group_13" data-name="Group 13">
        <path id="Path_65" data-name="Path 65" d="M12.869,0A12.932,12.932,0,0,0,0,12.986V30.419L12.869,17.432Z" fill="#bdbdbd"/>
      </g>
      <g id="Group_14" data-name="Group 14" transform="translate(12.869)">
        <path id="Path_66" data-name="Path 66" d="M28.549,0,11,17.549H28.549Z" transform="translate(-11)" fill="#bdbdbd"/>
      </g>
      <path id="Path_67" data-name="Path 67" d="M8.252,26H1.7l4.095,2.457L8.252,26" transform="translate(0.289 4.419)" fill="#bdbdbd" fill-rule="evenodd"/>
      <path id="Path_68" data-name="Path 68" d="M28.532,0H11.1V17.432L28.532,0" transform="translate(1.886)" fill="#bdbdbd" fill-rule="evenodd"/>
      <path id="Path_69" data-name="Path 69" d="M12.986,0A13.032,13.032,0,0,0,0,12.986V30.419L12.986,17.432V0" fill="#bdbdbd" fill-rule="evenodd"/>
      <path id="Path_70" data-name="Path 70" d="M28.532,0,11.1,17.432H28.532V0" transform="translate(1.886)" fill="#bdbdbd" fill-rule="evenodd"/>
      <path id="Path_71" data-name="Path 71" d="M12.986,14.9,0,27.886H17.432A13.032,13.032,0,0,0,30.419,14.9H12.986" transform="translate(0 2.532)" fill="#bdbdbd" fill-rule="evenodd"/>
    </g>
  </g>
</svg>
