<svg xmlns="http://www.w3.org/2000/svg" xmlns:xlink="http://www.w3.org/1999/xlink" width="200" height="60" viewBox="0 0 200 60">
  <defs>
    <clipPath id="clip-path">
      <path id="path60" d="M0-384H261.882v72.562H0Z" transform="translate(0 383.999)" fill="#bdbdbd"/>
    </clipPath>
    <clipPath id="clip-Tableau_200x60_Black_5">
      <rect width="200" height="60"/>
    </clipPath>
  </defs>
  <g id="Tableau_200x60_Black_5" data-name="Tableau_200x60_Black – 5" clip-path="url(#clip-Tableau_200x60_Black_5)">
    <g id="g18" transform="translate(55.658 388.975)">
      <g id="g20" transform="translate(-37.981 -368.19)">
        <path id="path22" d="M-51.6-26.423h-5.024v-6.156H-58.6v6.156h-5.024v2.187H-58.6v6.155h1.975v-6.155H-51.6Z" transform="translate(63.626 32.579)" fill="#bdbdbd"/>
      </g>
      <g id="g24" transform="translate(-46.764 -357.495)">
        <path id="path26" d="M-45.949-23.654h-4.5v-5.511h-1.7v5.511h-4.5v1.68h4.5v5.512h1.7v-5.512h4.5Z" transform="translate(56.655 29.165)" fill="#bdbdbd"/>
      </g>
      <g id="g28" transform="translate(-27.88 -377.236)">
        <path id="path30" d="M-45.952-23.768h-4.5v-5.538h-1.705v5.538h-4.5v1.679h4.5V-16.6h1.705v-5.487h4.5Z" transform="translate(56.658 29.306)" fill="#bdbdbd"/>
      </g>
      <g id="g32" transform="translate(-35.721 -349.711)">
        <path id="path34" d="M-32.458-16.5h-3.054v-3.844h-1.455V-16.5h-3.053v1.484h3.053v3.844h1.455v-3.844h3.054Z" transform="translate(40.021 20.341)" fill="#bdbdbd"/>
      </g>
      <g id="g36" transform="translate(-46.764 -377.237)">
        <path id="path38" d="M-45.949-23.765H-50.5V-29.3h-1.6v5.537h-4.554v1.63H-52.1V-16.6h1.6v-5.536h4.554Z" transform="translate(56.655 29.302)" fill="#bdbdbd"/>
      </g>
      <g id="g40" transform="translate(-21.278 -365.525)">
        <path id="path42" d="M-32.458-16.495h-3.053v-3.843h-1.456v3.843h-3.053v1.484h3.053v3.844h1.456V-15.01h3.053Z" transform="translate(40.021 20.338)" fill="#bdbdbd"/>
      </g>
      <g id="g44" transform="translate(-27.88 -357.495)">
        <path id="path46" d="M-45.952-23.654h-4.5v-5.511h-1.705v5.511h-4.5v1.68h4.5v5.512h1.705v-5.512h4.5Z" transform="translate(56.658 29.165)" fill="#bdbdbd" fill-rule="evenodd"/>
      </g>
      <g id="g48" transform="translate(-35.504 -381.166)">
        <path id="path50" d="M-12.965,0V3.771h-3.021V4.913h3.021V8.684h1.086V4.913h3.022V3.771h-3.022V0Z" transform="translate(15.986)" fill="#bdbdbd"/>
      </g>
      <g id="g52" transform="translate(-50.257 -365.232)">
        <path id="path54" d="M-30.6-15.87h-3.032v-3.7H-34.7v3.7h-3.032v1.19L-34.7-14.7v3.719h1.066v-3.726l3.032-.021Z" transform="translate(37.733 19.567)" fill="#bdbdbd"/>
      </g>
      <g id="g56" transform="translate(-86.598 -383.999)">
        <g id="g58" clip-path="url(#clip-path)">
          <g id="g96" transform="translate(131.027 12.838)">
            <path id="path98" d="M-20.331-75.126c2.36,0,3.713-1.525,3.713-4.24,0-2.67-1.361-4.273-3.483-4.273a5.5,5.5,0,0,0-2.441.69v7.341a5.76,5.76,0,0,0,2.211.482m-2.211-10.451a7.466,7.466,0,0,1,2.923-.683c3.374,0,5.654,2.673,5.654,6.865,0,4.347-2.4,6.888-6.62,6.888A12.235,12.235,0,0,1-25-73.4l-.072-19.226h2.526Z" transform="translate(25.068 92.63)" fill="#bdbdbd" fill-rule="evenodd"/>
          </g>
          <path id="path100" d="M807.728-330.346h2.5v25.235h-2.5Z" transform="translate(-655.097 340.484)" fill="#bdbdbd" fill-rule="evenodd"/>
          <g id="g102" transform="translate(166.146 19.241)">
            <path id="path104" d="M-24.138-59.107c-3.851-.421-5.727-3.473-5.62-7.091.116-3.907,2.36-6.68,5.781-6.68,3.589,0,5.667,2.993,5.489,7.408h-8.638c.207,2.446,1.509,3.6,3.29,3.758a8.054,8.054,0,0,0,4.709-1.051v2.69a8.061,8.061,0,0,1-5.011.967m-2.832-8.437h5.741c-.065-1.722-.886-2.616-2.348-2.722a3.425,3.425,0,0,0-3.393,2.722" transform="translate(29.762 72.878)" fill="#bdbdbd" fill-rule="evenodd"/>
          </g>
          <g id="g106" transform="translate(209.309 19.493)">
            <path id="path108" d="M-22.243-48.5c1.585,0,2.655-.911,2.655-2.951v-8.348h2.527v8.7c0,2.908-2,4.682-5.184,4.682s-5.181-1.774-5.181-4.682v-8.7H-24.9v8.348c0,2.04,1.074,2.951,2.657,2.951" transform="translate(27.426 59.795)" fill="#bdbdbd" fill-rule="evenodd"/>
          </g>
          <g id="g110" transform="translate(107.769 19.146)">
            <path id="path112" d="M-27.325-48.05a8.035,8.035,0,0,0,2.163-.31l.047-7.284a3.881,3.881,0,0,0-2.439-.919c-2.123,0-3.483,1.6-3.483,4.273,0,2.716,1.353,4.278,3.712,4.24m.254,2.619c-4.224.015-6.62-2.541-6.62-6.888,0-4.192,2.282-6.865,5.653-6.865a4.74,4.74,0,0,1,2.923.9v-.961h2.526l-.072,12.918a11.1,11.1,0,0,1-4.411.9" transform="translate(33.691 59.245)" fill="#bdbdbd" fill-rule="evenodd"/>
          </g>
          <g id="g114" transform="translate(187.587 19.146)">
            <path id="path116" d="M-27.327-48.05a8.106,8.106,0,0,0,2.163-.31l.047-7.284a3.884,3.884,0,0,0-2.439-.919c-2.124,0-3.483,1.6-3.483,4.273,0,2.716,1.351,4.246,3.713,4.24m.253,2.619c-4.225.015-6.62-2.541-6.62-6.888,0-4.192,2.28-6.865,5.653-6.865a4.747,4.747,0,0,1,2.924.9v-.961h2.525l-.073,12.918a11.082,11.082,0,0,1-4.41.9" transform="translate(33.694 59.245)" fill="#bdbdbd" fill-rule="evenodd"/>
          </g>
          <g id="g118" transform="translate(82.215 13.748)">
            <path id="path120" d="M-29,0h2.5V8h6.757v2.629H-26.5v8.678H-29V10.633H-35.76V8H-29Z" transform="translate(35.76)" fill="#bdbdbd"/>
          </g>
          <g id="g122" transform="translate(222.34 19.381)">
            <path id="path124" d="M-5.173-6.992h.194c.221,0,.4-.091.4-.324,0-.165-.105-.329-.4-.329a1.118,1.118,0,0,0-.194.015Zm0,1.043h-.266V-7.833a2.654,2.654,0,0,1,.473-.046.812.812,0,0,1,.52.143.481.481,0,0,1,.153.391.463.463,0,0,1-.326.459v.013c.144.031.246.18.278.459a1.8,1.8,0,0,0,.106.465h-.278a1.476,1.476,0,0,1-.113-.48c-.041-.241-.148-.331-.36-.331h-.187Zm.281-2.41a1.33,1.33,0,0,0-1.2,1.426A1.328,1.328,0,0,0-4.886-5.5a1.314,1.314,0,0,0,1.2-1.427,1.327,1.327,0,0,0-1.2-1.434Zm.005-.262A1.584,1.584,0,0,1-3.413-6.933a1.582,1.582,0,0,1-1.478,1.7,1.591,1.591,0,0,1-1.486-1.7A1.593,1.593,0,0,1-4.891-8.621Z" transform="translate(6.378 8.621)" fill="#bdbdbd"/>
          </g>
        </g>
      </g>
    </g>
  </g>
</svg>
