<svg xmlns="http://www.w3.org/2000/svg" xmlns:xlink="http://www.w3.org/1999/xlink" width="200" height="60" viewBox="0 0 200 60">
  <defs>
    <clipPath id="clip-Tiktok_200x60">
      <rect width="200" height="60"/>
    </clipPath>
  </defs>
  <g id="Tiktok_200x60" clip-path="url(#clip-Tiktok_200x60)">
    <g id="TikTok-Logomark_Wordmark-Logo.wine" data-name="TikTok-Logomark&amp;Wordmark-Logo.wine" transform="translate(19.389 11.126)">
      <path id="Path_72" data-name="Path 72" d="M13.01,4.414V2.943a10.855,10.855,0,0,0-1.543-.133A11.442,11.442,0,0,0,4.908,23.645a11.43,11.43,0,0,1,8.1-19.231Z" transform="translate(0 10.453)" fill="#bdbdbd"/>
      <path id="Path_73" data-name="Path 73" d="M6.141,31.529a5.233,5.233,0,0,0,5.221-5V1.579h4.558A8.548,8.548,0,0,1,15.787,0H9.553V24.922a5.233,5.233,0,0,1-5.221,5.04,5.3,5.3,0,0,1-2.411-.6,5.233,5.233,0,0,0,4.22,2.17Zm18.29-21.485V8.657a8.512,8.512,0,0,1-4.714-1.423,8.645,8.645,0,0,0,4.714,2.809Z" transform="translate(7.146 0)" fill="#bdbdbd"/>
      <path id="Path_74" data-name="Path 74" d="M21.93,6A8.585,8.585,0,0,1,19.8.332H18.132A8.633,8.633,0,0,0,21.93,6ZM6.533,18.261a5.233,5.233,0,0,0-2.411,9.863A5.221,5.221,0,0,1,8.353,19.84a5.5,5.5,0,0,1,1.543.241V13.739a10.949,10.949,0,0,0-1.543-.121H8.076v4.823a5.365,5.365,0,0,0-1.543-.181Z" transform="translate(4.934 1.235)" fill="#bdbdbd"/>
      <path id="Path_75" data-name="Path 75" d="M27.71,2.128V6.951a14.794,14.794,0,0,1-8.645-2.809V16.813A11.466,11.466,0,0,1,7.6,28.255,11.345,11.345,0,0,1,1.04,26.182a11.442,11.442,0,0,0,19.822-7.789V5.757A14.818,14.818,0,0,0,29.518,8.53V2.321a8.837,8.837,0,0,1-1.809-.193Z" transform="translate(3.868 7.915)" fill="#bdbdbd"/>
      <path id="Path_76" data-name="Path 76" d="M21.545,23.494V10.822A14.794,14.794,0,0,0,30.2,13.595V8.772A8.645,8.645,0,0,1,25.475,6a8.633,8.633,0,0,1-3.8-5.667H17.12V25.29a5.233,5.233,0,0,1-9.465,2.857,5.233,5.233,0,0,1,2.411-9.863,5.366,5.366,0,0,1,1.543.241V13.7a11.43,11.43,0,0,0-8.1,19.291,11.346,11.346,0,0,0,6.571,1.941A11.466,11.466,0,0,0,21.545,23.494Z" transform="translate(1.388 1.235)" fill="#bdbdbd"/>
      <g id="Group_15" data-name="Group 15" transform="translate(39.968 8.818)">
        <path id="Path_77" data-name="Path 77" d="M13.18,27.368H6.59V5.947H.013L0,.076H20.312L18.447,5.947H13.18Zm53.59,0H60.192V5.947h-6.6L53.577.076H74.355L72.49,5.947H66.77ZM21.547,8.757h6.514V27.368H21.6Zm17.527,9.551-1.928,1.865v7.195h-6.5V0h6.5V12.714l6.451-6.3h7.762l-8.153,7.913,9.135,13.041h-7.17Zm68.925,0-1.865,1.865v7.195H99.619L99.556,0h6.577V12.714l6.439-6.3h7.762l-8.153,7.913,9.072,13.041h-7.17Z" fill="#bdbdbd"/>
        <circle id="Ellipse_2" data-name="Ellipse 2" cx="3.276" cy="3.276" r="3.276" transform="translate(21.534 0.076)" fill="#bdbdbd"/>
        <path id="Path_78" data-name="Path 78" d="M16.517,12.188a11.139,11.139,0,0,1,10.269-11.1h-.97a11.139,11.139,0,0,0,0,22.24h.97A11.139,11.139,0,0,1,16.517,12.188Z" transform="translate(57.007 4.042)" fill="#bdbdbd"/>
        <path id="Path_79" data-name="Path 79" d="M19.065,1.138h-.983a11.139,11.139,0,0,1,0,22.2h.983a11.139,11.139,0,1,0,0-22.278Z" transform="translate(67.26 3.952)" fill="#bdbdbd"/>
        <path id="Path_80" data-name="Path 80" d="M26.7,17.636a5.418,5.418,0,1,1,5.418-5.418A5.418,5.418,0,0,1,26.7,17.636Zm0-16.557a11.139,11.139,0,1,0,7.876,3.262A11.139,11.139,0,0,0,26.7,1.079Z" transform="translate(57.866 4.012)" fill="#bdbdbd"/>
      </g>
    </g>
  </g>
</svg>
