<svg xmlns="http://www.w3.org/2000/svg" xmlns:xlink="http://www.w3.org/1999/xlink" width="200" height="60" viewBox="0 0 200 60">
  <defs>
    <clipPath id="clip-Twitter_200x60">
      <rect width="200" height="60"/>
    </clipPath>
  </defs>
  <g id="Twitter_200x60" clip-path="url(#clip-Twitter_200x60)">
    <g id="Logo_1_" transform="translate(61.762 -1.497)">
      <path id="white_background" d="M67.852,16.563c.045.657.045,1.313.045,1.976,0,20.19-15.37,43.476-43.476,43.476V62A43.257,43.257,0,0,1,1,55.152a31.082,31.082,0,0,0,3.637.221,30.682,30.682,0,0,0,18.977-6.554A15.3,15.3,0,0,1,9.339,38.208a15.23,15.23,0,0,0,6.9-.263A15.281,15.281,0,0,1,3.98,22.968v-.194a15.183,15.183,0,0,0,6.935,1.912,15.3,15.3,0,0,1-4.729-20.4A43.368,43.368,0,0,0,37.677,20.248,15.294,15.294,0,0,1,63.716,6.312a30.661,30.661,0,0,0,9.7-3.709A15.337,15.337,0,0,1,66.7,11.053a30.388,30.388,0,0,0,8.774-2.405A31.041,31.041,0,0,1,67.852,16.563Z" transform="translate(0 0)" fill="#bdbdbd"/>
    </g>
  </g>
</svg>
