<svg xmlns="http://www.w3.org/2000/svg" xmlns:xlink="http://www.w3.org/1999/xlink" width="200" height="60" viewBox="0 0 200 60">
  <defs>
    <clipPath id="clip-YouTube_200x60">
      <rect width="200" height="60"/>
    </clipPath>
  </defs>
  <g id="YouTube_200x60" clip-path="url(#clip-YouTube_200x60)">
    <g id="YouTube_Logo_2017" transform="translate(-1.817 7.236)">
      <path id="Path_81" data-name="Path 81" d="M64.274,7.4a8.028,8.028,0,0,0-5.652-5.652C53.665.4,33.718.4,33.718.4S13.77.441,8.814,1.793A8.028,8.028,0,0,0,3.162,7.445c-1.5,8.806-2.081,22.225.041,30.679a8.028,8.028,0,0,0,5.652,5.652c4.956,1.352,24.9,1.352,24.9,1.352s19.947,0,24.9-1.352a8.028,8.028,0,0,0,5.652-5.652C65.9,29.305,66.383,15.9,64.274,7.4Z" transform="translate(0 0)" fill="#bdbdbd"/>
      <path id="Path_82" data-name="Path 82" d="M64.2,50.769l16.548-9.585L64.2,31.6Z" transform="translate(-36.831 -18.421)" fill="#fff"/>
      <g id="Group_16" data-name="Group 16" transform="translate(71.933 2.161)">
        <path id="Path_83" data-name="Path 83" d="M195.487,45.678a6.949,6.949,0,0,1-2.7-3.973,26.118,26.118,0,0,1-.778-7.168V30.482a23.371,23.371,0,0,1,.9-7.25,7.067,7.067,0,0,1,2.867-3.973,9.417,9.417,0,0,1,5.079-1.27,8.554,8.554,0,0,1,4.956,1.27,7.407,7.407,0,0,1,2.744,3.973,24.552,24.552,0,0,1,.86,7.209V34.5a24.25,24.25,0,0,1-.86,7.168,7.2,7.2,0,0,1-2.744,3.973,9.37,9.37,0,0,1-5.12,1.27A9.148,9.148,0,0,1,195.487,45.678Zm7.086-4.383a13.08,13.08,0,0,0,.532-4.465V28.106a12.7,12.7,0,0,0-.532-4.383,1.89,1.89,0,0,0-1.843-1.393,1.844,1.844,0,0,0-1.8,1.393,12.851,12.851,0,0,0-.532,4.383v8.724a14.488,14.488,0,0,0,.492,4.465,1.833,1.833,0,0,0,1.843,1.352A1.9,1.9,0,0,0,202.573,41.3Zm89.784-6.676v1.434l.164,4.055a4.075,4.075,0,0,0,.655,1.966,2.249,2.249,0,0,0,3.482-.492,9.441,9.441,0,0,0,.573-3.645l5.448.328a6.665,6.665,0,0,1,.041.983c0,2.58-.7,4.506-2.13,5.775a8.67,8.67,0,0,1-5.98,1.925c-3.113,0-5.284-.983-6.513-2.908s-1.884-4.956-1.884-9.011V30.073c.139-6.963,1.364-12.063,8.561-12.083a8.765,8.765,0,0,1,4.956,1.188,6.431,6.431,0,0,1,2.458,3.686,25.857,25.857,0,0,1,.7,6.922v4.792H292.357Zm.819-11.8a3.9,3.9,0,0,0-.655,1.925c-.123.9-.164,4.1-.164,4.1v2.007h4.587V28.844c0,2.007-.041-3.154-.164-4.1a3.772,3.772,0,0,0-.655-1.966,1.881,1.881,0,0,0-1.475-.573A1.912,1.912,0,0,0,293.176,22.823ZM180.168,34.087,173,8.2h6.267S182.2,21.184,183.2,27.287h.164C184.5,20.807,187.377,8.2,187.377,8.2h6.267l-7.25,25.846V46.456h-6.185V34.087Z" transform="translate(-173 -6.766)" fill="#bdbdbd"/>
        <path id="A" d="M287,33.4V61.376h-4.915l-.533-3.441h-.123a6.486,6.486,0,0,1-6.021,3.891c-4.821-.012-5.358-4.1-5.407-7.537V33.4h6.308V53.921a6.091,6.091,0,0,0,.41,2.662c.582,1.139,2.089.848,2.908.287a3.276,3.276,0,0,0,1.106-1.27V33.4Z" transform="translate(-230.269 -21.645)" fill="#bdbdbd"/>
        <path id="Path_84" data-name="Path 84" d="M326.378,11.213h-6.267V44.431h-6.144V11.213H307.7V6.134h18.637v5.079Zm36,9.707a7.218,7.218,0,0,0-1.843-3.85,5.017,5.017,0,0,0-3.523-1.188,5.775,5.775,0,0,0-3.236.983,6.743,6.743,0,0,0-2.335,2.58H351.4V4.7h-6.062V44.39h5.2l.655-2.662h.123a5.734,5.734,0,0,0,2.171,2.253,6.661,6.661,0,0,0,3.236.819,4.991,4.991,0,0,0,4.71-2.949c.983-1.966,1.516-5.038,1.516-9.175V28.252A37.522,37.522,0,0,0,362.381,20.92Zm-5.775,11.428a35.924,35.924,0,0,1-.246,4.792,5.007,5.007,0,0,1-.86,2.458,1.981,1.981,0,0,1-1.6.737,2.764,2.764,0,0,1-2.5-1.475V22.968a3.8,3.8,0,0,1,1.106-1.884,2.008,2.008,0,0,1,3.154,0,5.862,5.862,0,0,1,.737,2.54c.123,1.188.2,2.867.2,5.079Z" transform="translate(-252.527 -4.7)" fill="#bdbdbd"/>
      </g>
      <path id="Path_85" data-name="Path 85" d="M287,33.4V61.376h-4.915l-.533-3.441h-.123a6.486,6.486,0,0,1-6.021,3.891c-4.821-.012-5.358-4.1-5.407-7.537V33.4h6.308V53.921a6.091,6.091,0,0,0,.41,2.662c.582,1.139,2.089.848,2.908.287a3.276,3.276,0,0,0,1.106-1.27V33.4Z" transform="translate(-126.019 -19.483)" fill="#bdbdbd"/>
    </g>
  </g>
</svg>
